<?xml version="1.0" encoding="iso-8859-1"?>
<!-- Generator: Adobe Illustrator 29.2.1, SVG Export Plug-In . SVG Version: 9.03 Build 55982)  -->
<svg version="1.1" id="Layer_1" xmlns="http://www.w3.org/2000/svg" xmlns:xlink="http://www.w3.org/1999/xlink" x="0px" y="0px"
	 viewBox="0 0 212.598 74.737" style="enable-background:new 0 0 212.598 74.737;" xml:space="preserve">
<g>
	<g>
		<path d="M89.298,20.123l7.055-19.505h2.819l7.055,19.505h-2.55l-1.916-5.342H93.79l-1.956,5.342H89.298z M94.424,12.488h6.677
			l-3.319-9.402L94.424,12.488z"/>
		<path d="M113.498,20.393c-0.729-0.009-1.414-0.115-2.058-0.317s-1.212-0.501-1.706-0.897c-0.494-0.395-0.884-0.888-1.166-1.477
			c-0.284-0.589-0.425-1.275-0.425-2.057V6.175h2.495v9.213c0,0.909,0.282,1.646,0.844,2.212c0.561,0.567,1.409,0.85,2.543,0.85
			c1.025,0,1.85-0.268,2.475-0.803c0.625-0.535,0.937-1.333,0.937-2.394V6.175h2.482v13.948h-1.982l-0.256-2.671
			c-0.172,0.701-0.461,1.268-0.87,1.7s-0.899,0.749-1.471,0.951C114.768,20.305,114.153,20.402,113.498,20.393z"/>
		<path d="M128.497,20.393c-0.971,0-1.873-0.151-2.705-0.452c-0.831-0.302-1.522-0.773-2.07-1.417
			c-0.549-0.643-0.895-1.463-1.039-2.461h2.266c0.126,0.548,0.353,1.005,0.681,1.369c0.328,0.364,0.74,0.639,1.234,0.823
			c0.494,0.184,1.034,0.276,1.619,0.276c0.935,0,1.691-0.175,2.266-0.526c0.576-0.351,0.863-0.891,0.863-1.619
			c0-0.513-0.151-0.924-0.452-1.234c-0.301-0.31-0.767-0.538-1.396-0.681l-2.887-0.715c-1.124-0.27-2.024-0.693-2.698-1.268
			c-0.674-0.575-1.011-1.38-1.011-2.415c-0.009-0.818,0.184-1.537,0.58-2.158c0.396-0.62,0.989-1.11,1.781-1.47
			c0.79-0.36,1.776-0.54,2.954-0.54c1.511,0,2.732,0.34,3.662,1.018c0.931,0.679,1.414,1.675,1.45,2.988h-2.198
			c-0.09-0.665-0.39-1.194-0.897-1.585c-0.508-0.391-1.189-0.587-2.043-0.587c-0.891,0-1.615,0.178-2.172,0.533
			c-0.558,0.356-0.837,0.906-0.837,1.653c0,0.494,0.197,0.883,0.593,1.166c0.396,0.284,0.98,0.52,1.754,0.709l2.791,0.701
			c0.648,0.171,1.181,0.396,1.599,0.674c0.418,0.279,0.75,0.589,0.998,0.931c0.248,0.342,0.422,0.699,0.526,1.072
			c0.103,0.374,0.155,0.731,0.155,1.072c0,0.855-0.214,1.59-0.641,2.206c-0.427,0.616-1.038,1.092-1.835,1.43
			C130.595,20.224,129.631,20.393,128.497,20.393z"/>
		<path d="M143.862,7.997h-3.144v8.674c0,0.495,0.052,0.857,0.155,1.086c0.104,0.229,0.28,0.376,0.526,0.438
			c0.248,0.063,0.587,0.095,1.018,0.095h1.524v1.673c-0.171,0.063-0.43,0.117-0.775,0.162c-0.346,0.045-0.776,0.067-1.289,0.067
			c-0.962,0-1.708-0.13-2.239-0.391c-0.53-0.261-0.901-0.647-1.112-1.16c-0.212-0.512-0.318-1.142-0.318-1.888V7.997h-2.266V6.175
			h2.334l0.606-4.06h1.834v4.047h3.144V7.997z"/>
		<path d="M147.179,20.123V6.175h2.374V8.86c0.234-0.665,0.562-1.216,0.985-1.653c0.423-0.436,0.906-0.762,1.45-0.978
			c0.545-0.216,1.109-0.324,1.693-0.324c0.208,0,0.41,0.013,0.607,0.041c0.197,0.027,0.35,0.072,0.458,0.135v2.415
			c-0.135-0.063-0.307-0.105-0.519-0.128c-0.212-0.023-0.39-0.034-0.532-0.034c-0.558-0.036-1.079-0.002-1.565,0.101
			c-0.485,0.103-0.913,0.281-1.282,0.533c-0.369,0.252-0.659,0.582-0.869,0.991c-0.212,0.41-0.318,0.906-0.318,1.491v8.674H147.179z
			"/>
		<path d="M160.871,20.393c-0.899,0-1.696-0.16-2.387-0.479c-0.693-0.319-1.234-0.78-1.626-1.383
			c-0.391-0.602-0.587-1.33-0.587-2.185c0-1.547,0.54-2.698,1.619-3.453c1.079-0.755,2.811-1.16,5.193-1.214l2.496-0.067v-1.092
			c0-0.855-0.257-1.531-0.769-2.03c-0.513-0.499-1.309-0.749-2.388-0.749c-0.801,0.009-1.504,0.198-2.111,0.567
			c-0.606,0.368-1,0.971-1.18,1.807h-2.199c0.054-0.908,0.31-1.675,0.77-2.3c0.458-0.625,1.099-1.1,1.922-1.423
			s1.796-0.486,2.92-0.486c1.215,0,2.224,0.171,3.029,0.513c0.805,0.342,1.407,0.845,1.808,1.511c0.4,0.665,0.6,1.484,0.6,2.455
			v9.739h-2.132l-0.175-2.617c-0.54,1.088-1.226,1.842-2.058,2.259C162.783,20.184,161.869,20.393,160.871,20.393z M161.626,18.599
			c0.468,0,0.933-0.085,1.396-0.256c0.464-0.171,0.888-0.402,1.275-0.695c0.386-0.292,0.695-0.62,0.924-0.985
			s0.348-0.739,0.358-1.126V13.15l-2.078,0.04c-1.061,0.018-1.949,0.126-2.664,0.324c-0.714,0.198-1.25,0.508-1.605,0.931
			c-0.356,0.422-0.532,0.976-0.532,1.659c0,0.783,0.271,1.394,0.816,1.834C160.059,18.379,160.763,18.599,161.626,18.599z"/>
		<path d="M175.278,20.298c-0.755,0-1.365-0.103-1.828-0.31c-0.462-0.207-0.818-0.486-1.066-0.836
			c-0.247-0.351-0.413-0.753-0.498-1.207c-0.085-0.454-0.128-0.924-0.128-1.41V0.078h2.455v16.214c0,0.701,0.137,1.228,0.411,1.578
			c0.274,0.351,0.659,0.544,1.153,0.58l0.755,0.013v1.619c-0.207,0.063-0.422,0.115-0.647,0.155
			C175.66,20.278,175.457,20.298,175.278,20.298z"/>
		<path d="M182.13,0.631v2.59h-2.55v-2.59H182.13z M182.076,6.175v13.948h-2.414V6.175H182.076z"/>
		<path d="M190.048,20.393c-0.899,0-1.696-0.16-2.387-0.479c-0.693-0.319-1.234-0.78-1.626-1.383
			c-0.391-0.602-0.587-1.33-0.587-2.185c0-1.547,0.54-2.698,1.619-3.453c1.079-0.755,2.811-1.16,5.193-1.214l2.496-0.067v-1.092
			c0-0.855-0.257-1.531-0.769-2.03c-0.513-0.499-1.309-0.749-2.388-0.749c-0.801,0.009-1.504,0.198-2.111,0.567
			c-0.606,0.368-1,0.971-1.18,1.807h-2.199c0.054-0.908,0.31-1.675,0.77-2.3c0.458-0.625,1.099-1.1,1.922-1.423
			s1.796-0.486,2.92-0.486c1.215,0,2.224,0.171,3.029,0.513c0.805,0.342,1.407,0.845,1.808,1.511c0.4,0.665,0.6,1.484,0.6,2.455
			v9.739h-2.132l-0.175-2.617c-0.54,1.088-1.226,1.842-2.058,2.259C191.961,20.184,191.046,20.393,190.048,20.393z M190.803,18.599
			c0.468,0,0.933-0.085,1.396-0.256c0.464-0.171,0.888-0.402,1.275-0.695c0.386-0.292,0.695-0.62,0.924-0.985
			s0.348-0.739,0.358-1.126V13.15l-2.078,0.04c-1.061,0.018-1.949,0.126-2.664,0.324c-0.714,0.198-1.25,0.508-1.605,0.931
			c-0.356,0.422-0.532,0.976-0.532,1.659c0,0.783,0.271,1.394,0.816,1.834C189.236,18.379,189.94,18.599,190.803,18.599z"/>
		<path d="M200.825,20.123V6.175h2.415v2.024c0.224-0.387,0.536-0.751,0.937-1.093c0.4-0.341,0.886-0.616,1.456-0.823
			c0.571-0.207,1.23-0.31,1.976-0.31c0.882,0,1.693,0.176,2.435,0.526c0.742,0.351,1.336,0.897,1.781,1.639
			c0.445,0.742,0.667,1.697,0.667,2.866v9.119h-2.495v-8.876c0-1.088-0.286-1.895-0.856-2.421c-0.571-0.526-1.311-0.789-2.219-0.789
			c-0.63,0-1.219,0.101-1.768,0.303c-0.548,0.202-0.994,0.508-1.335,0.917c-0.342,0.41-0.513,0.924-0.513,1.545v9.321H200.825z"/>
		<path d="M102.369,25.7h2.496v19.506h-2.226L92.171,29.828v15.378h-2.495V25.7h2.387l10.306,15.163V25.7z"/>
		<path d="M112.998,45.476c-0.898,0-1.696-0.16-2.386-0.479c-0.693-0.32-1.234-0.78-1.626-1.383
			c-0.392-0.602-0.587-1.331-0.587-2.185c0-1.547,0.54-2.698,1.619-3.454c1.079-0.755,2.81-1.16,5.192-1.214l2.497-0.067v-1.092
			c0-0.855-0.257-1.531-0.769-2.03c-0.514-0.499-1.309-0.749-2.388-0.749c-0.802,0.009-1.505,0.198-2.111,0.567
			c-0.606,0.368-1.001,0.971-1.18,1.807h-2.199c0.054-0.908,0.31-1.675,0.769-2.3c0.458-0.625,1.1-1.1,1.922-1.423
			c0.824-0.324,1.796-0.486,2.921-0.486c1.215,0,2.224,0.171,3.028,0.513c0.806,0.342,1.408,0.845,1.809,1.511
			c0.399,0.665,0.6,1.484,0.6,2.455v9.74h-2.132l-0.175-2.617c-0.541,1.088-1.227,1.841-2.058,2.259
			C114.912,45.266,113.997,45.476,112.998,45.476z M113.755,43.681c0.467,0,0.933-0.085,1.396-0.257
			c0.462-0.171,0.888-0.402,1.274-0.694c0.386-0.293,0.695-0.621,0.925-0.986c0.228-0.364,0.347-0.739,0.358-1.126v-2.387
			l-2.078,0.04c-1.061,0.019-1.949,0.126-2.664,0.324c-0.715,0.198-1.25,0.508-1.605,0.932c-0.356,0.423-0.532,0.976-0.532,1.659
			c0,0.782,0.271,1.394,0.816,1.834C112.186,43.461,112.891,43.681,113.755,43.681z"/>
		<path d="M130.265,33.078h-3.144v8.674c0,0.494,0.052,0.856,0.155,1.086c0.104,0.229,0.28,0.375,0.526,0.438
			c0.248,0.063,0.587,0.095,1.018,0.095h1.524v1.672c-0.171,0.064-0.43,0.117-0.775,0.162c-0.346,0.045-0.776,0.068-1.289,0.068
			c-0.962,0-1.708-0.131-2.239-0.392c-0.53-0.261-0.901-0.647-1.112-1.16c-0.212-0.513-0.318-1.142-0.318-1.888v-8.755h-2.266
			v-1.821h2.334l0.606-4.06h1.834v4.047h3.144V33.078z"/>
		<path d="M136.335,25.713v2.59h-2.55v-2.59H136.335z M136.28,31.257v13.948h-2.414V31.257H136.28z"/>
		<path d="M145.939,45.476c-1.287,0-2.411-0.277-3.373-0.83c-0.962-0.553-1.708-1.364-2.238-2.435
			c-0.531-1.07-0.796-2.378-0.796-3.925c0-1.457,0.248-2.734,0.742-3.831c0.494-1.097,1.221-1.949,2.179-2.556
			c0.958-0.607,2.119-0.911,3.487-0.911c1.286,0,2.403,0.281,3.351,0.843s1.684,1.387,2.206,2.475
			c0.522,1.088,0.782,2.415,0.782,3.979c0,1.421-0.24,2.672-0.721,3.751c-0.481,1.079-1.191,1.922-2.132,2.529
			C148.486,45.172,147.323,45.476,145.939,45.476z M145.939,43.506c0.836,0,1.542-0.211,2.117-0.634
			c0.576-0.422,1.012-1.029,1.308-1.821c0.297-0.79,0.446-1.731,0.446-2.819c0-0.998-0.131-1.896-0.392-2.691
			c-0.261-0.796-0.677-1.428-1.248-1.896c-0.571-0.467-1.315-0.701-2.232-0.701c-0.846,0-1.561,0.209-2.145,0.627
			c-0.585,0.418-1.028,1.023-1.329,1.814c-0.301,0.791-0.452,1.74-0.452,2.846c0,0.98,0.135,1.87,0.405,2.671
			c0.269,0.801,0.693,1.435,1.268,1.902C144.262,43.272,145.012,43.506,145.939,43.506z"/>
		<path d="M155.286,45.205V31.257h2.415v2.024c0.224-0.387,0.536-0.751,0.937-1.093c0.4-0.341,0.886-0.616,1.456-0.823
			c0.571-0.207,1.23-0.31,1.976-0.31c0.882,0,1.693,0.176,2.435,0.526c0.742,0.351,1.336,0.897,1.781,1.639
			c0.445,0.742,0.667,1.697,0.667,2.866v9.119h-2.495v-8.876c0-1.088-0.286-1.895-0.856-2.421c-0.571-0.526-1.311-0.789-2.219-0.789
			c-0.63,0-1.219,0.101-1.768,0.303c-0.548,0.202-0.994,0.508-1.335,0.917c-0.342,0.41-0.513,0.924-0.513,1.545v9.322H155.286z"/>
		<path d="M174.401,45.476c-0.899,0-1.696-0.16-2.387-0.479c-0.693-0.32-1.234-0.78-1.626-1.383
			c-0.391-0.602-0.587-1.331-0.587-2.185c0-1.547,0.54-2.698,1.619-3.454c1.079-0.755,2.811-1.16,5.193-1.214l2.496-0.067v-1.092
			c0-0.855-0.257-1.531-0.769-2.03c-0.513-0.499-1.309-0.749-2.388-0.749c-0.801,0.009-1.504,0.198-2.111,0.567
			c-0.606,0.368-1,0.971-1.18,1.807h-2.199c0.054-0.908,0.31-1.675,0.77-2.3c0.458-0.625,1.099-1.1,1.922-1.423
			s1.796-0.486,2.92-0.486c1.215,0,2.224,0.171,3.029,0.513s1.407,0.845,1.808,1.511c0.4,0.665,0.6,1.484,0.6,2.455v9.74h-2.132
			l-0.175-2.617c-0.54,1.088-1.226,1.841-2.058,2.259C176.314,45.266,175.399,45.476,174.401,45.476z M175.156,43.681
			c0.468,0,0.933-0.085,1.396-0.257c0.464-0.171,0.888-0.402,1.275-0.694c0.386-0.293,0.695-0.621,0.924-0.986
			c0.229-0.364,0.348-0.739,0.358-1.126v-2.387l-2.078,0.04c-1.061,0.019-1.949,0.126-2.664,0.324
			c-0.714,0.198-1.25,0.508-1.605,0.932c-0.356,0.423-0.532,0.976-0.532,1.659c0,0.782,0.271,1.394,0.816,1.834
			C173.589,43.461,174.293,43.681,175.156,43.681z"/>
		<path d="M188.808,45.381c-0.755,0-1.365-0.104-1.828-0.31c-0.462-0.207-0.818-0.486-1.066-0.837
			c-0.247-0.35-0.413-0.753-0.498-1.208c-0.085-0.453-0.128-0.924-0.128-1.409V25.16h2.455v16.214c0,0.702,0.137,1.228,0.411,1.579
			s0.659,0.545,1.153,0.58l0.755,0.014v1.619c-0.207,0.063-0.422,0.114-0.647,0.155C189.19,45.361,188.988,45.381,188.808,45.381z"
			/>
		<path d="M103.934,63.541c0,1.503-0.247,2.775-0.742,3.818c-0.495,1.043-1.266,1.837-2.313,2.38
			c-1.048,0.545-2.408,0.817-4.081,0.817c-1.691,0-3.06-0.28-4.107-0.837c-1.048-0.558-1.812-1.376-2.293-2.455
			c-0.481-1.079-0.721-2.406-0.721-3.979V50.781h2.59v12.883c0,1.573,0.391,2.751,1.174,3.533c0.782,0.783,1.902,1.174,3.359,1.174
			c0.98,0,1.814-0.171,2.502-0.513c0.688-0.341,1.214-0.86,1.579-1.557c0.364-0.697,0.546-1.577,0.546-2.637V50.781h2.509V63.541z"
			/>
		<path d="M107.576,70.286V56.339h2.414v2.023c0.225-0.386,0.538-0.75,0.938-1.092c0.399-0.341,0.886-0.616,1.455-0.822
			c0.571-0.208,1.231-0.31,1.977-0.31c0.882,0,1.692,0.175,2.434,0.526c0.742,0.35,1.336,0.896,1.782,1.638
			c0.444,0.742,0.666,1.698,0.666,2.866v9.119h-2.495v-8.875c0-1.088-0.286-1.895-0.855-2.421c-0.571-0.526-1.311-0.789-2.22-0.789
			c-0.629,0-1.219,0.101-1.768,0.303c-0.547,0.202-0.993,0.509-1.334,0.918c-0.342,0.409-0.513,0.924-0.513,1.545v9.32H107.576z"/>
		<path d="M125.544,50.794v2.59h-2.55v-2.59H125.544z M125.489,56.339v13.947h-2.414V56.339H125.489z"/>
		<path d="M140.502,56.339l-5.031,13.947h-2.266l-5.045-13.947h2.347l3.709,10.818h0.229l3.723-10.818H140.502z"/>
		<path d="M144.185,63.893c0,0.881,0.146,1.679,0.438,2.394c0.292,0.715,0.738,1.285,1.336,1.707
			c0.597,0.422,1.346,0.634,2.246,0.634c0.89,0,1.657-0.208,2.3-0.621c0.642-0.414,1.054-1.012,1.234-1.794h2.361
			c-0.172,0.944-0.549,1.74-1.134,2.387s-1.291,1.136-2.117,1.463c-0.828,0.329-1.692,0.493-2.591,0.493
			c-1.303,0-2.45-0.284-3.439-0.85c-0.99-0.567-1.764-1.38-2.321-2.442c-0.558-1.061-0.837-2.334-0.837-3.817
			c0-1.467,0.252-2.752,0.755-3.858c0.504-1.107,1.234-1.97,2.192-2.59c0.958-0.621,2.111-0.931,3.46-0.931
			c1.312,0,2.423,0.284,3.332,0.85c0.907,0.566,1.598,1.365,2.07,2.395c0.473,1.03,0.708,2.251,0.708,3.662v0.918H144.185z
			 M144.198,62.206h7.581c0-0.801-0.135-1.522-0.405-2.165c-0.269-0.642-0.68-1.151-1.234-1.524
			c-0.553-0.373-1.248-0.559-2.083-0.559c-0.873,0-1.594,0.209-2.165,0.627c-0.571,0.418-0.998,0.953-1.282,1.605
			C144.325,60.841,144.189,61.513,144.198,62.206z"/>
		<path d="M157.323,70.286V56.339h2.374v2.683c0.234-0.665,0.562-1.216,0.985-1.652c0.423-0.437,0.906-0.763,1.45-0.978
			c0.545-0.216,1.109-0.324,1.693-0.324c0.208,0,0.41,0.013,0.607,0.04c0.197,0.028,0.35,0.073,0.458,0.136v2.414
			c-0.135-0.063-0.307-0.106-0.519-0.128c-0.212-0.022-0.39-0.033-0.532-0.033c-0.558-0.036-1.079-0.002-1.565,0.101
			c-0.485,0.104-0.913,0.282-1.282,0.532c-0.369,0.253-0.659,0.583-0.869,0.992c-0.212,0.409-0.318,0.906-0.318,1.491v8.673H157.323
			z"/>
		<path d="M172.363,70.556c-0.971,0-1.873-0.151-2.705-0.452c-0.831-0.301-1.522-0.774-2.07-1.416
			c-0.549-0.643-0.895-1.463-1.039-2.462h2.266c0.126,0.549,0.353,1.005,0.681,1.37c0.328,0.364,0.74,0.638,1.234,0.822
			c0.494,0.185,1.034,0.276,1.619,0.276c0.935,0,1.691-0.175,2.266-0.526c0.576-0.35,0.863-0.89,0.863-1.619
			c0-0.512-0.151-0.924-0.452-1.234c-0.301-0.31-0.767-0.536-1.396-0.68l-2.887-0.715c-1.124-0.27-2.024-0.693-2.698-1.268
			c-0.674-0.576-1.011-1.38-1.011-2.414c-0.009-0.818,0.184-1.539,0.58-2.158c0.396-0.621,0.989-1.111,1.781-1.471
			c0.79-0.36,1.776-0.54,2.954-0.54c1.511,0,2.732,0.339,3.662,1.018c0.931,0.679,1.414,1.675,1.45,2.988h-2.198
			c-0.09-0.665-0.39-1.193-0.897-1.585c-0.508-0.392-1.189-0.587-2.043-0.587c-0.891,0-1.615,0.178-2.172,0.533
			c-0.558,0.355-0.837,0.905-0.837,1.652c0,0.495,0.197,0.884,0.593,1.167c0.396,0.283,0.98,0.519,1.754,0.708l2.791,0.701
			c0.648,0.172,1.181,0.396,1.599,0.675c0.418,0.279,0.75,0.589,0.998,0.93c0.248,0.342,0.422,0.7,0.526,1.073
			c0.103,0.373,0.155,0.731,0.155,1.072c0,0.854-0.214,1.59-0.641,2.206c-0.427,0.616-1.038,1.092-1.835,1.43
			C174.461,70.387,173.497,70.556,172.363,70.556z"/>
		<path d="M183.695,50.794v2.59h-2.55v-2.59H183.695z M183.64,56.339v13.947h-2.414V56.339H183.64z"/>
		<path d="M194.755,58.159h-3.144v8.674c0,0.494,0.052,0.856,0.155,1.086c0.104,0.229,0.28,0.375,0.526,0.438
			c0.248,0.063,0.587,0.095,1.018,0.095h1.524v1.672c-0.171,0.064-0.43,0.117-0.775,0.162c-0.346,0.045-0.776,0.068-1.289,0.068
			c-0.962,0-1.708-0.131-2.239-0.392c-0.53-0.261-0.901-0.647-1.112-1.16c-0.212-0.513-0.318-1.142-0.318-1.888v-8.755h-2.266v-1.82
			h2.334l0.606-4.061h1.835v4.046h3.144V58.159z"/>
		<path d="M199.543,74.737c-0.818,0-1.533-0.117-2.145-0.35v-1.619l1.416,0.027c0.522,0.019,0.954-0.017,1.295-0.108
			c0.342-0.089,0.616-0.211,0.823-0.364c0.207-0.153,0.366-0.324,0.479-0.513c0.112-0.189,0.205-0.369,0.276-0.54l0.485-1.322
			l-5.449-13.61h2.522l4.114,10.763l4.087-10.763h2.442l-5.882,15c-0.36,0.881-0.762,1.569-1.207,2.064s-0.94,0.841-1.484,1.039
			C200.772,74.639,200.182,74.737,199.543,74.737z"/>
	</g>
	<g>
		<path style="fill:#BE830E;" d="M58.051,2.086c0.124,2.63,0.51,11.714,0.51,22.829c0,13.543-0.887,20.764-3.272,26.643
			c-1.154,2.842-2.617,4.994-4.742,6.977c-1.91,1.783-4.438,3.529-8.723,6.025c-3.279,1.91-5.895,3.195-8,3.931
			c-1.9,0.664-3.035,0.75-3.812,0.75c-0.776,0-1.911-0.085-3.811-0.75c-2.105-0.736-4.722-2.022-8.001-3.931
			c-4.285-2.497-6.812-4.243-8.721-6.025c-2.125-1.984-3.587-4.135-4.74-6.977c-2.387-5.878-3.275-13.099-3.275-26.643
			c0-11.109,0.386-20.182,0.51-22.822L58.051,2.086 M1.324,0.734c-0.162,0-0.322,0.043-0.447,0.15
			C0.751,0.995,0.672,1.153,0.663,1.322C0.658,1.424,0.117,11.715,0.117,24.915c0,13.737,0.915,21.094,3.374,27.15
			c2.494,6.146,6.345,9.181,14.031,13.66c7.358,4.285,10.438,4.864,12.49,4.864c2.055,0,5.133-0.579,12.49-4.864
			c7.688-4.479,11.538-7.514,14.035-13.66c2.457-6.055,3.371-13.413,3.371-27.15c0-13.2-0.541-23.49-0.545-23.593
			c-0.009-0.169-0.085-0.327-0.215-0.437c-0.124-0.109-0.287-0.15-0.455-0.15C58.693,0.735,1.485,0.734,1.324,0.734z"/>
		<g>
			<polygon style="fill:#BE830E;" points="47.293,17.358 46.648,15.551 46.008,17.328 44.1,17.403 45.616,18.576 45.074,20.399 
				46.642,19.317 48.223,20.399 47.68,18.556 49.195,17.403 			"/>
			<polygon style="fill:#BE830E;" points="45.061,27.601 46.509,28.94 46.366,26.973 48.316,26.675 46.688,25.56 47.671,23.85 
				45.785,24.428 45.061,22.593 44.337,24.428 42.451,23.85 43.433,25.56 41.806,26.675 43.756,26.973 43.612,28.94 			"/>
			<polygon style="fill:#BE830E;" points="52.928,16.78 54.376,18.119 54.233,16.151 56.183,15.854 54.555,14.739 55.538,13.029 
				53.652,13.607 52.928,11.772 52.204,13.607 50.318,13.029 51.3,14.739 49.673,15.854 51.623,16.151 51.479,18.119 			"/>
			<polygon style="fill:#BE830E;" points="45.889,9.402 47.338,10.741 47.195,8.773 49.144,8.476 47.517,7.361 48.5,5.651 
				46.614,6.229 45.889,4.394 45.165,6.229 43.279,5.651 44.262,7.361 42.635,8.476 44.584,8.773 44.441,10.741 			"/>
			<polygon style="fill:#BE830E;" points="37.577,15.796 39.026,17.135 38.882,15.168 40.832,14.87 39.205,13.755 40.188,12.045 
				38.302,12.623 37.577,10.788 36.853,12.623 34.967,12.045 35.95,13.755 34.322,14.87 36.272,15.168 36.129,17.135 			"/>
		</g>
		<g>
			<path style="fill:#BE830E;" d="M45.133,32.281c-7.977-3.814-13.337-6.52-15.271-6.52c-1.931,0-6.983,2.706-14.959,6.52
				c-7.976,3.815-10.7,4.633-10.7,6.301c0,1.669,1.958,0.875,2.553,0.697c0.596-0.178,20.95-6.764,23.106-6.764
				c2.157,0,22.821,6.586,23.417,6.764c0.596,0.179,2.553,0.973,2.553-0.697C55.833,36.913,53.109,36.096,45.133,32.281z"/>
			<path style="fill:#BE830E;" d="M49.718,44.749c-3.459,1.161-6.206,3.691-10.037,2.97c-3.359-0.632-6.146-3.533-9.674-3.488
				c-3.862,0.049-6.776,3.374-10.564,3.69c-3.725,0.311-6.622-2.697-10.093-3.409c-1.57-0.322-2.946-0.105-4.257,0.345
				c0.266,1.292,0.574,2.482,0.93,3.602c1.034-0.249,2.124-0.32,3.327-0.073c3.472,0.712,6.369,3.72,10.093,3.409
				c3.788-0.316,6.703-3.642,10.564-3.69c3.527-0.045,6.315,2.856,9.674,3.488c3.831,0.721,6.578-1.809,10.037-2.97
				c1.546-0.519,2.927-0.474,4.24-0.147c0.355-1.118,0.664-2.306,0.929-3.595C53.295,44.329,51.633,44.106,49.718,44.749z"/>
			<path style="fill:#BE830E;" d="M49.718,52.497c-3.459,1.161-6.206,3.691-10.037,2.97c-3.359-0.632-6.146-3.533-9.674-3.488
				c-3.862,0.049-6.776,3.374-10.564,3.69c-3.725,0.311-6.622-2.697-10.093-3.409c-0.658-0.135-1.282-0.175-1.881-0.143
				c0.785,1.578,1.763,2.945,2.963,4.176c0.038,0.039,0.075,0.067,0.124,0.091c0.391,0.189,2.406,1.166,3.413,1.672
				c1.714,0.861,3.505,1.651,5.474,1.487c3.788-0.316,6.703-3.642,10.564-3.69c3.527-0.045,6.315,2.856,9.674,3.488
				c2.345,0.441,4.32-0.353,6.264-1.287c1.01-0.486,3.169-1.557,3.573-1.758c0.048-0.024,0.085-0.053,0.123-0.092
				c1.14-1.195,2.119-2.564,2.876-4.084C51.635,52.063,50.711,52.164,49.718,52.497z"/>
			<path style="fill:#BE830E;" d="M20.495,63.253c1.541,0.868,2.91,1.576,4.127,2.133c1.71-0.891,3.426-1.76,5.386-1.785
				c1.959-0.025,3.689,0.859,5.416,1.757c1.227-0.566,2.609-1.283,4.165-2.163c-3.317-0.667-6.087-3.513-9.581-3.469
				C26.51,59.772,23.79,62.502,20.495,63.253z"/>
			<path style="fill:#BE830E;" d="M42.486,39.961c-4.087-1.248-6.881-2.063-8.791-2.596c-1.818-0.507-2.667-0.699-3.229-0.842
				c-0.167-0.042-0.448-0.095-0.543-0.112c-0.125,0.023-0.297,0.058-0.532,0.112c-0.471,0.108-1.197,0.29-2.313,0.598
				c-1.893,0.522-4.909,1.403-9.709,2.891c-1.54,0.477-3.265,1.017-5.195,1.628c2.357,1.123,4.617,2.632,7.31,2.407
				c3.788-0.316,6.703-3.642,10.564-3.69c3.527-0.045,6.315,2.856,9.674,3.488c3.121,0.587,5.523-0.983,8.176-2.213
				C45.88,41.003,44.084,40.449,42.486,39.961z"/>
		</g>
	</g>
</g>
</svg>
