<?xml version="1.0" encoding="UTF-8"?>
<svg xmlns="http://www.w3.org/2000/svg" viewBox="24 -6 460 336" width="460" height="336">
  <!-- Define styles -->
  <style>
    .cell { fill: #2a2a2a; stroke: #fff; stroke-width: 0.5; }
    .cell-numbered { fill: #be830e; stroke: #fff; stroke-width: 0.5; }
    .cell-disabled { fill: #2a2a2a; stroke: #fff; stroke-width: 0.5; opacity: 0.3; }
    .cell-numbered-disabled { fill: #be830e; stroke: #fff; stroke-width: 0.5; opacity: 0.3; }
    .cell-dividers { stroke: #fff; stroke-width: 0.5; fill: none; }
    .group-divider { stroke: #ffffff; stroke-width: 1.5; }
    .row-border { fill: none; stroke: #ffffff; stroke-width: 1.5; }
    .number-text { font-family: Arial, sans-serif; font-size: 10px; font-weight: 600; text-anchor: middle; fill: #fff; }
    .number-text-disabled { font-family: Arial, sans-serif; font-size: 10px; font-weight: 600; text-anchor: middle; fill: #fff; opacity: 0.3; }
    .label-text { font-family: Arial, sans-serif; font-size: 12px; font-weight: bold; fill: #ffffff; }
    .group-label { font-family: Arial, sans-serif; font-size: 10px; text-anchor: middle; fill: #ffffff; }
    .group-label-disabled { font-family: Arial, sans-serif; font-size: 10px; text-anchor: middle; fill: #ffffff; opacity: 0.3; }
    .row-label { font-family: Arial, sans-serif; font-size: 14px; font-weight: 900; fill: #ffffff; }
  </style>
  <!-- Row 2: 2 groups -->
  <g transform="translate(50, 10)">
    <text x="-25" y="15" class="row-label">2</text>
    <text x="100.0" y="-4" class="group-label">1</text>
    <text x="332.0" y="-4" class="group-label">2</text>
    <rect x="0.0" y="0" width="20" height="20" class="cell-numbered"/>
    <rect x="20.0" y="0" width="160" height="20" class="cell"/>
    <rect x="180.0" y="0" width="20" height="20" class="cell-numbered"/>
    <rect x="232.0" y="0" width="20" height="20" class="cell-numbered"/>
    <rect x="252.0" y="0" width="160" height="20" class="cell"/>
    <rect x="412.0" y="0" width="20" height="20" class="cell-numbered"/>
    <path d="M 20.0,0 v20 M 40.0,0 v20 M 60.0,0 v20 M 80.0,0 v20 M 100.0,0 v20 M 120.0,0 v20 M 140.0,0 v20 M 160.0,0 v20 M 180.0,0 v20 M 252.0,0 v20 M 272.0,0 v20 M 292.0,0 v20 M 312.0,0 v20 M 332.0,0 v20 M 352.0,0 v20 M 372.0,0 v20 M 392.0,0 v20 M 412.0,0 v20" class="cell-dividers"/>
    <rect x="0.0" y="0" width="200" height="20" class="row-border"/>
    <rect x="232.0" y="0" width="200" height="20" class="row-border"/>
    <text x="10.0" y="13" class="number-text">1</text>
    <text x="190.0" y="13" class="number-text">10</text>
    <text x="242.0" y="13" class="number-text">11</text>
    <text x="422.0" y="13" class="number-text">20</text>
  </g>
  <!-- Row 3: 3 groups (7+7+6) -->
  <g transform="translate(50, 50)">
    <text x="-25" y="15" class="row-label">3</text>
    <text x="70.0" y="-4" class="group-label">1</text>
    <text x="226.0" y="-4" class="group-label">2</text>
    <text x="372.0" y="-4" class="group-label">3</text>
    <rect x="0.0" y="0" width="20" height="20" class="cell-numbered"/>
    <rect x="20.0" y="0" width="100" height="20" class="cell"/>
    <rect x="120.0" y="0" width="20" height="20" class="cell-numbered"/>
    <rect x="156.0" y="0" width="20" height="20" class="cell-numbered"/>
    <rect x="176.0" y="0" width="100" height="20" class="cell"/>
    <rect x="276.0" y="0" width="20" height="20" class="cell-numbered"/>
    <rect x="312.0" y="0" width="20" height="20" class="cell-numbered"/>
    <rect x="332.0" y="0" width="80" height="20" class="cell"/>
    <rect x="412.0" y="0" width="20" height="20" class="cell-numbered"/>
    <path d="M 20.0,0 v20 M 40.0,0 v20 M 60.0,0 v20 M 80.0,0 v20 M 100.0,0 v20 M 120.0,0 v20 M 176.0,0 v20 M 196.0,0 v20 M 216.0,0 v20 M 236.0,0 v20 M 256.0,0 v20 M 276.0,0 v20 M 332.0,0 v20 M 352.0,0 v20 M 372.0,0 v20 M 392.0,0 v20 M 412.0,0 v20" class="cell-dividers"/>
    <rect x="0.0" y="0" width="140" height="20" class="row-border"/>
    <rect x="156.0" y="0" width="140" height="20" class="row-border"/>
    <rect x="312.0" y="0" width="120" height="20" class="row-border"/>
    <text x="10.0" y="13" class="number-text">1</text>
    <text x="130.0" y="13" class="number-text">7</text>
    <text x="166.0" y="13" class="number-text">8</text>
    <text x="286.0" y="13" class="number-text">14</text>
    <text x="322.0" y="13" class="number-text">15</text>
    <text x="422.0" y="13" class="number-text">20</text>
  </g>
  <!-- Row 4: 4 groups -->
  <g transform="translate(50, 90)">
    <text x="-25" y="15" class="row-label">4</text>
    <text x="50.0" y="-4" class="group-label">1</text>
    <text x="160.66666666666669" y="-4" class="group-label">2</text>
    <text x="271.33333333333337" y="-4" class="group-label">3</text>
    <text x="382.00000000000006" y="-4" class="group-label">4</text>
    <rect x="0.0" y="0" width="20" height="20" class="cell-numbered"/>
    <rect x="20.0" y="0" width="60" height="20" class="cell"/>
    <rect x="80.0" y="0" width="20" height="20" class="cell-numbered"/>
    <rect x="110.66666666666667" y="0" width="20" height="20" class="cell-numbered"/>
    <rect x="130.66666666666669" y="0" width="60" height="20" class="cell"/>
    <rect x="190.66666666666669" y="0" width="20" height="20" class="cell-numbered"/>
    <rect x="221.33333333333334" y="0" width="20" height="20" class="cell-numbered"/>
    <rect x="241.33333333333334" y="0" width="60" height="20" class="cell"/>
    <rect x="301.33333333333337" y="0" width="20" height="20" class="cell-numbered"/>
    <rect x="332.00000000000006" y="0" width="20" height="20" class="cell-numbered"/>
    <rect x="352.00000000000006" y="0" width="60" height="20" class="cell"/>
    <rect x="412.00000000000006" y="0" width="20" height="20" class="cell-numbered"/>
    <path d="M 20.0,0 v20 M 40.0,0 v20 M 60.0,0 v20 M 80.0,0 v20 M 130.66666666666669,0 v20 M 150.66666666666669,0 v20 M 170.66666666666669,0 v20 M 190.66666666666669,0 v20 M 241.33333333333334,0 v20 M 261.33333333333337,0 v20 M 281.33333333333337,0 v20 M 301.33333333333337,0 v20 M 352.00000000000006,0 v20 M 372.00000000000006,0 v20 M 392.00000000000006,0 v20 M 412.00000000000006,0 v20" class="cell-dividers"/>
    <rect x="0.0" y="0" width="100" height="20" class="row-border"/>
    <rect x="110.66666666666667" y="0" width="100" height="20" class="row-border"/>
    <rect x="221.33333333333334" y="0" width="100" height="20" class="row-border"/>
    <rect x="332.00000000000006" y="0" width="100" height="20" class="row-border"/>
    <text x="10.0" y="13" class="number-text">1</text>
    <text x="90.0" y="13" class="number-text">5</text>
    <text x="120.66666666666667" y="13" class="number-text">6</text>
    <text x="200.66666666666669" y="13" class="number-text">10</text>
    <text x="231.33333333333334" y="13" class="number-text">11</text>
    <text x="311.33333333333337" y="13" class="number-text">15</text>
    <text x="342.00000000000006" y="13" class="number-text">16</text>
    <text x="422.00000000000006" y="13" class="number-text">20</text>
  </g>
  <!-- Row 5: 5 groups -->
  <g transform="translate(50, 130)">
    <text x="-25" y="15" class="row-label">5</text>
    <text x="40.0" y="-4" class="group-label">1</text>
    <text x="128.0" y="-4" class="group-label">2</text>
    <text x="216.0" y="-4" class="group-label">3</text>
    <text x="304.0" y="-4" class="group-label">4</text>
    <text x="392.0" y="-4" class="group-label">5</text>
    <rect x="0.0" y="0" width="20" height="20" class="cell-numbered"/>
    <rect x="20.0" y="0" width="40" height="20" class="cell"/>
    <rect x="60.0" y="0" width="20" height="20" class="cell-numbered"/>
    <rect x="88.0" y="0" width="20" height="20" class="cell-numbered"/>
    <rect x="108.0" y="0" width="40" height="20" class="cell"/>
    <rect x="148.0" y="0" width="20" height="20" class="cell-numbered"/>
    <rect x="176.0" y="0" width="20" height="20" class="cell-numbered"/>
    <rect x="196.0" y="0" width="40" height="20" class="cell"/>
    <rect x="236.0" y="0" width="20" height="20" class="cell-numbered"/>
    <rect x="264.0" y="0" width="20" height="20" class="cell-numbered"/>
    <rect x="284.0" y="0" width="40" height="20" class="cell"/>
    <rect x="324.0" y="0" width="20" height="20" class="cell-numbered"/>
    <rect x="352.0" y="0" width="20" height="20" class="cell-numbered"/>
    <rect x="372.0" y="0" width="40" height="20" class="cell"/>
    <rect x="412.0" y="0" width="20" height="20" class="cell-numbered"/>
    <path d="M 20.0,0 v20 M 40.0,0 v20 M 60.0,0 v20 M 108.0,0 v20 M 128.0,0 v20 M 148.0,0 v20 M 196.0,0 v20 M 216.0,0 v20 M 236.0,0 v20 M 284.0,0 v20 M 304.0,0 v20 M 324.0,0 v20 M 372.0,0 v20 M 392.0,0 v20 M 412.0,0 v20" class="cell-dividers"/>
    <rect x="0.0" y="0" width="80" height="20" class="row-border"/>
    <rect x="88.0" y="0" width="80" height="20" class="row-border"/>
    <rect x="176.0" y="0" width="80" height="20" class="row-border"/>
    <rect x="264.0" y="0" width="80" height="20" class="row-border"/>
    <rect x="352.0" y="0" width="80" height="20" class="row-border"/>
    <text x="10.0" y="13" class="number-text">1</text>
    <text x="70.0" y="13" class="number-text">4</text>
    <text x="98.0" y="13" class="number-text">5</text>
    <text x="158.0" y="13" class="number-text">8</text>
    <text x="186.0" y="13" class="number-text">9</text>
    <text x="246.0" y="13" class="number-text">12</text>
    <text x="274.0" y="13" class="number-text">13</text>
    <text x="334.0" y="13" class="number-text">16</text>
    <text x="362.0" y="13" class="number-text">17</text>
    <text x="422.0" y="13" class="number-text">20</text>
  </g>
  <!-- Row 6: 6 groups (4+4+3+3+3+3) -->
  <g transform="translate(50, 170)">
    <text x="-25" y="15" class="row-label">6</text>
    <text x="40.0" y="-4" class="group-label">1</text>
    <text x="126.4" y="-4" class="group-label">2</text>
    <text x="202.8" y="-4" class="group-label">3</text>
    <text x="269.20000000000005" y="-4" class="group-label">4</text>
    <text x="335.6" y="-4" class="group-label">5</text>
    <text x="402.0" y="-4" class="group-label">6</text>
    <rect x="0.0" y="0" width="20" height="20" class="cell-numbered"/>
    <rect x="20.0" y="0" width="40" height="20" class="cell"/>
    <rect x="60.0" y="0" width="20" height="20" class="cell-numbered"/>
    <rect x="86.4" y="0" width="20" height="20" class="cell-numbered"/>
    <rect x="106.4" y="0" width="40" height="20" class="cell"/>
    <rect x="146.4" y="0" width="20" height="20" class="cell-numbered"/>
    <rect x="172.8" y="0" width="20" height="20" class="cell-numbered"/>
    <rect x="192.8" y="0" width="20" height="20" class="cell"/>
    <rect x="212.8" y="0" width="20" height="20" class="cell-numbered"/>
    <rect x="239.20000000000002" y="0" width="20" height="20" class="cell-numbered"/>
    <rect x="259.20000000000005" y="0" width="20" height="20" class="cell"/>
    <rect x="279.20000000000005" y="0" width="20" height="20" class="cell-numbered"/>
    <rect x="305.6" y="0" width="20" height="20" class="cell-numbered"/>
    <rect x="325.6" y="0" width="20" height="20" class="cell"/>
    <rect x="345.6" y="0" width="20" height="20" class="cell-numbered"/>
    <rect x="372.0" y="0" width="20" height="20" class="cell-numbered"/>
    <rect x="392.0" y="0" width="20" height="20" class="cell"/>
    <rect x="412.0" y="0" width="20" height="20" class="cell-numbered"/>
    <path d="M 20.0,0 v20 M 40.0,0 v20 M 60.0,0 v20 M 106.4,0 v20 M 126.4,0 v20 M 146.4,0 v20 M 192.8,0 v20 M 212.8,0 v20 M 259.20000000000005,0 v20 M 279.20000000000005,0 v20 M 325.6,0 v20 M 345.6,0 v20 M 392.0,0 v20 M 412.0,0 v20" class="cell-dividers"/>
    <rect x="0.0" y="0" width="80" height="20" class="row-border"/>
    <rect x="86.4" y="0" width="80" height="20" class="row-border"/>
    <rect x="172.8" y="0" width="60" height="20" class="row-border"/>
    <rect x="239.20000000000002" y="0" width="60" height="20" class="row-border"/>
    <rect x="305.6" y="0" width="60" height="20" class="row-border"/>
    <rect x="372.0" y="0" width="60" height="20" class="row-border"/>
    <text x="10.0" y="13" class="number-text">1</text>
    <text x="70.0" y="13" class="number-text">4</text>
    <text x="96.4" y="13" class="number-text">5</text>
    <text x="156.4" y="13" class="number-text">8</text>
    <text x="182.8" y="13" class="number-text">9</text>
    <text x="222.8" y="13" class="number-text">11</text>
    <text x="249.20000000000002" y="13" class="number-text">12</text>
    <text x="289.20000000000005" y="13" class="number-text">14</text>
    <text x="315.6" y="13" class="number-text">15</text>
    <text x="355.6" y="13" class="number-text">17</text>
    <text x="382.0" y="13" class="number-text">18</text>
    <text x="422.0" y="13" class="number-text">20</text>
  </g>
  <!-- Row 7: 7 groups (3+3+3+3+3+3+2) -->
  <g transform="translate(50, 210)">
    <text x="-25" y="15" class="row-label">7</text>
    <text x="30.0" y="-4" class="group-label">1</text>
    <text x="95.33333333333333" y="-4" class="group-label">2</text>
    <text x="160.66666666666666" y="-4" class="group-label">3</text>
    <text x="226.0" y="-4" class="group-label">4</text>
    <text x="291.3333333333333" y="-4" class="group-label">5</text>
    <text x="356.66666666666663" y="-4" class="group-label">6</text>
    <text x="411.99999999999994" y="-4" class="group-label">7</text>
    <rect x="0.0" y="0" width="20" height="20" class="cell-numbered"/>
    <rect x="20.0" y="0" width="20" height="20" class="cell"/>
    <rect x="40.0" y="0" width="20" height="20" class="cell-numbered"/>
    <rect x="65.33333333333333" y="0" width="20" height="20" class="cell-numbered"/>
    <rect x="85.33333333333333" y="0" width="20" height="20" class="cell"/>
    <rect x="105.33333333333333" y="0" width="20" height="20" class="cell-numbered"/>
    <rect x="130.66666666666666" y="0" width="20" height="20" class="cell-numbered"/>
    <rect x="150.66666666666666" y="0" width="20" height="20" class="cell"/>
    <rect x="170.66666666666666" y="0" width="20" height="20" class="cell-numbered"/>
    <rect x="196.0" y="0" width="20" height="20" class="cell-numbered"/>
    <rect x="216.0" y="0" width="20" height="20" class="cell"/>
    <rect x="236.0" y="0" width="20" height="20" class="cell-numbered"/>
    <rect x="261.3333333333333" y="0" width="20" height="20" class="cell-numbered"/>
    <rect x="281.3333333333333" y="0" width="20" height="20" class="cell"/>
    <rect x="301.3333333333333" y="0" width="20" height="20" class="cell-numbered"/>
    <rect x="326.66666666666663" y="0" width="20" height="20" class="cell-numbered"/>
    <rect x="346.66666666666663" y="0" width="20" height="20" class="cell"/>
    <rect x="366.66666666666663" y="0" width="20" height="20" class="cell-numbered"/>
    <rect x="391.99999999999994" y="0" width="20" height="20" class="cell-numbered"/>
    <rect x="411.99999999999994" y="0" width="20" height="20" class="cell-numbered"/>
    <path d="M 20.0,0 v20 M 40.0,0 v20 M 85.33333333333333,0 v20 M 105.33333333333333,0 v20 M 150.66666666666666,0 v20 M 170.66666666666666,0 v20 M 216.0,0 v20 M 236.0,0 v20 M 281.3333333333333,0 v20 M 301.3333333333333,0 v20 M 346.66666666666663,0 v20 M 366.66666666666663,0 v20 M 411.99999999999994,0 v20" class="cell-dividers"/>
    <rect x="0.0" y="0" width="60" height="20" class="row-border"/>
    <rect x="65.33333333333333" y="0" width="60" height="20" class="row-border"/>
    <rect x="130.66666666666666" y="0" width="60" height="20" class="row-border"/>
    <rect x="196.0" y="0" width="60" height="20" class="row-border"/>
    <rect x="261.3333333333333" y="0" width="60" height="20" class="row-border"/>
    <rect x="326.66666666666663" y="0" width="60" height="20" class="row-border"/>
    <rect x="391.99999999999994" y="0" width="40" height="20" class="row-border"/>
    <text x="10.0" y="13" class="number-text">1</text>
    <text x="50.0" y="13" class="number-text">3</text>
    <text x="75.33333333333333" y="13" class="number-text">4</text>
    <text x="115.33333333333333" y="13" class="number-text">6</text>
    <text x="140.66666666666666" y="13" class="number-text">7</text>
    <text x="180.66666666666666" y="13" class="number-text">9</text>
    <text x="206.0" y="13" class="number-text">10</text>
    <text x="246.0" y="13" class="number-text">12</text>
    <text x="271.3333333333333" y="13" class="number-text">13</text>
    <text x="311.3333333333333" y="13" class="number-text">15</text>
    <text x="336.66666666666663" y="13" class="number-text">16</text>
    <text x="376.66666666666663" y="13" class="number-text">18</text>
    <text x="401.99999999999994" y="13" class="number-text">19</text>
    <text x="421.99999999999994" y="13" class="number-text">20</text>
  </g>
  <!-- Row 8: 8 groups (3+3+3+3+2+2+2+2) -->
  <g transform="translate(50, 250)">
    <text x="-25" y="15" class="row-label">8</text>
    <text x="30.0" y="-4" class="group-label">1</text>
    <text x="94.57142857142857" y="-4" class="group-label">2</text>
    <text x="159.14285714285714" y="-4" class="group-label">3</text>
    <text x="223.71428571428572" y="-4" class="group-label">4</text>
    <text x="278.2857142857143" y="-4" class="group-label">5</text>
    <text x="322.85714285714283" y="-4" class="group-label">6</text>
    <text x="367.4285714285714" y="-4" class="group-label">7</text>
    <text x="411.99999999999994" y="-4" class="group-label">8</text>
    <rect x="0.0" y="0" width="20" height="20" class="cell-numbered"/>
    <rect x="20.0" y="0" width="20" height="20" class="cell"/>
    <rect x="40.0" y="0" width="20" height="20" class="cell-numbered"/>
    <rect x="64.57142857142857" y="0" width="20" height="20" class="cell-numbered"/>
    <rect x="84.57142857142857" y="0" width="20" height="20" class="cell"/>
    <rect x="104.57142857142857" y="0" width="20" height="20" class="cell-numbered"/>
    <rect x="129.14285714285714" y="0" width="20" height="20" class="cell-numbered"/>
    <rect x="149.14285714285714" y="0" width="20" height="20" class="cell"/>
    <rect x="169.14285714285714" y="0" width="20" height="20" class="cell-numbered"/>
    <rect x="193.71428571428572" y="0" width="20" height="20" class="cell-numbered"/>
    <rect x="213.71428571428572" y="0" width="20" height="20" class="cell"/>
    <rect x="233.71428571428572" y="0" width="20" height="20" class="cell-numbered"/>
    <rect x="258.2857142857143" y="0" width="20" height="20" class="cell-numbered"/>
    <rect x="278.2857142857143" y="0" width="20" height="20" class="cell-numbered"/>
    <rect x="302.85714285714283" y="0" width="20" height="20" class="cell-numbered"/>
    <rect x="322.85714285714283" y="0" width="20" height="20" class="cell-numbered"/>
    <rect x="347.4285714285714" y="0" width="20" height="20" class="cell-numbered"/>
    <rect x="367.4285714285714" y="0" width="20" height="20" class="cell-numbered"/>
    <rect x="391.99999999999994" y="0" width="20" height="20" class="cell-numbered"/>
    <rect x="411.99999999999994" y="0" width="20" height="20" class="cell-numbered"/>
    <path d="M 20.0,0 v20 M 40.0,0 v20 M 84.57142857142857,0 v20 M 104.57142857142857,0 v20 M 149.14285714285714,0 v20 M 169.14285714285714,0 v20 M 213.71428571428572,0 v20 M 233.71428571428572,0 v20 M 278.2857142857143,0 v20 M 322.85714285714283,0 v20 M 367.4285714285714,0 v20 M 411.99999999999994,0 v20" class="cell-dividers"/>
    <rect x="0.0" y="0" width="60" height="20" class="row-border"/>
    <rect x="64.57142857142857" y="0" width="60" height="20" class="row-border"/>
    <rect x="129.14285714285714" y="0" width="60" height="20" class="row-border"/>
    <rect x="193.71428571428572" y="0" width="60" height="20" class="row-border"/>
    <rect x="258.2857142857143" y="0" width="40" height="20" class="row-border"/>
    <rect x="302.85714285714283" y="0" width="40" height="20" class="row-border"/>
    <rect x="347.4285714285714" y="0" width="40" height="20" class="row-border"/>
    <rect x="391.99999999999994" y="0" width="40" height="20" class="row-border"/>
    <text x="10.0" y="13" class="number-text">1</text>
    <text x="50.0" y="13" class="number-text">3</text>
    <text x="74.57142857142857" y="13" class="number-text">4</text>
    <text x="114.57142857142857" y="13" class="number-text">6</text>
    <text x="139.14285714285714" y="13" class="number-text">7</text>
    <text x="179.14285714285714" y="13" class="number-text">9</text>
    <text x="203.71428571428572" y="13" class="number-text">10</text>
    <text x="243.71428571428572" y="13" class="number-text">12</text>
    <text x="268.2857142857143" y="13" class="number-text">13</text>
    <text x="288.2857142857143" y="13" class="number-text">14</text>
    <text x="312.85714285714283" y="13" class="number-text">15</text>
    <text x="332.85714285714283" y="13" class="number-text">16</text>
    <text x="357.4285714285714" y="13" class="number-text">17</text>
    <text x="377.4285714285714" y="13" class="number-text">18</text>
    <text x="401.99999999999994" y="13" class="number-text">19</text>
    <text x="421.99999999999994" y="13" class="number-text">20</text>
  </g>
  <!-- Row 9: 9 groups (3+3+2+2+2+2+2+2+2) -->
  <g transform="translate(50, 290)">
    <text x="-25" y="15" class="row-label">9</text>
    <text x="30.0" y="-4" class="group-label">1</text>
    <text x="94.0" y="-4" class="group-label">2</text>
    <text x="148.0" y="-4" class="group-label">3</text>
    <text x="192.0" y="-4" class="group-label">4</text>
    <text x="236.0" y="-4" class="group-label">5</text>
    <text x="280.0" y="-4" class="group-label">6</text>
    <text x="324.0" y="-4" class="group-label">7</text>
    <text x="368.0" y="-4" class="group-label">8</text>
    <text x="412.0" y="-4" class="group-label">9</text>
    <rect x="0.0" y="0" width="20" height="20" class="cell-numbered"/>
    <rect x="20.0" y="0" width="20" height="20" class="cell"/>
    <rect x="40.0" y="0" width="20" height="20" class="cell-numbered"/>
    <rect x="64.0" y="0" width="20" height="20" class="cell-numbered"/>
    <rect x="84.0" y="0" width="20" height="20" class="cell"/>
    <rect x="104.0" y="0" width="20" height="20" class="cell-numbered"/>
    <rect x="128.0" y="0" width="20" height="20" class="cell-numbered"/>
    <rect x="148.0" y="0" width="20" height="20" class="cell-numbered"/>
    <rect x="172.0" y="0" width="20" height="20" class="cell-numbered"/>
    <rect x="192.0" y="0" width="20" height="20" class="cell-numbered"/>
    <rect x="216.0" y="0" width="20" height="20" class="cell-numbered"/>
    <rect x="236.0" y="0" width="20" height="20" class="cell-numbered"/>
    <rect x="260.0" y="0" width="20" height="20" class="cell-numbered"/>
    <rect x="280.0" y="0" width="20" height="20" class="cell-numbered"/>
    <rect x="304.0" y="0" width="20" height="20" class="cell-numbered"/>
    <rect x="324.0" y="0" width="20" height="20" class="cell-numbered"/>
    <rect x="348.0" y="0" width="20" height="20" class="cell-numbered"/>
    <rect x="368.0" y="0" width="20" height="20" class="cell-numbered"/>
    <rect x="392.0" y="0" width="20" height="20" class="cell-numbered"/>
    <rect x="412.0" y="0" width="20" height="20" class="cell-numbered"/>
    <path d="M 20.0,0 v20 M 40.0,0 v20 M 84.0,0 v20 M 104.0,0 v20 M 148.0,0 v20 M 192.0,0 v20 M 236.0,0 v20 M 280.0,0 v20 M 324.0,0 v20 M 368.0,0 v20 M 412.0,0 v20" class="cell-dividers"/>
    <rect x="0.0" y="0" width="60" height="20" class="row-border"/>
    <rect x="64.0" y="0" width="60" height="20" class="row-border"/>
    <rect x="128.0" y="0" width="40" height="20" class="row-border"/>
    <rect x="172.0" y="0" width="40" height="20" class="row-border"/>
    <rect x="216.0" y="0" width="40" height="20" class="row-border"/>
    <rect x="260.0" y="0" width="40" height="20" class="row-border"/>
    <rect x="304.0" y="0" width="40" height="20" class="row-border"/>
    <rect x="348.0" y="0" width="40" height="20" class="row-border"/>
    <rect x="392.0" y="0" width="40" height="20" class="row-border"/>
    <text x="10.0" y="13" class="number-text">1</text>
    <text x="50.0" y="13" class="number-text">3</text>
    <text x="74.0" y="13" class="number-text">4</text>
    <text x="114.0" y="13" class="number-text">6</text>
    <text x="138.0" y="13" class="number-text">7</text>
    <text x="158.0" y="13" class="number-text">8</text>
    <text x="182.0" y="13" class="number-text">9</text>
    <text x="202.0" y="13" class="number-text">10</text>
    <text x="226.0" y="13" class="number-text">11</text>
    <text x="246.0" y="13" class="number-text">12</text>
    <text x="270.0" y="13" class="number-text">13</text>
    <text x="290.0" y="13" class="number-text">14</text>
    <text x="314.0" y="13" class="number-text">15</text>
    <text x="334.0" y="13" class="number-text">16</text>
    <text x="358.0" y="13" class="number-text">17</text>
    <text x="378.0" y="13" class="number-text">18</text>
    <text x="402.0" y="13" class="number-text">19</text>
    <text x="422.0" y="13" class="number-text">20</text>
  </g>
</svg>
