<?xml version="1.0" encoding="UTF-8"?>
<svg xmlns="http://www.w3.org/2000/svg" viewBox="24 -6 460 336" width="460" height="336">
  <!-- Define styles -->
  <style>
    .cell { fill: #2a2a2a; stroke: #fff; stroke-width: 0.5; }
    .cell-numbered { fill: #be830e; stroke: #fff; stroke-width: 0.5; }
    .cell-dividers { stroke: #fff; stroke-width: 0.5; fill: none; }
    .group-divider { stroke: #ffffff; stroke-width: 1.5; }
    .row-border { fill: none; stroke: #ffffff; stroke-width: 1.5; }
    .number-text { font-family: Arial, sans-serif; font-size: 10px; font-weight: 600; text-anchor: middle; fill: #fff; }
    .label-text { font-family: Arial, sans-serif; font-size: 12px; font-weight: bold; fill: #ffffff; }
    .group-label { font-family: Arial, sans-serif; font-size: 10px; text-anchor: middle; fill: #ffffff; }
    .row-label { font-family: Arial, sans-serif; font-size: 14px; font-weight: 900; fill: #ffffff; }
  </style>
  <!-- Row 2: 2 groups -->
  <g transform="translate(50, 10)">
    <text x="-25" y="15" class="row-label">2</text>
    <text x="100" y="-4" class="group-label">1</text>
    <text x="332" y="-4" class="group-label">2</text>
    <rect x="0" y="0" width="20" height="20" class="cell-numbered"/>
    <rect x="20" y="0" width="160" height="20" class="cell"/>
    <rect x="180" y="0" width="20" height="20" class="cell-numbered"/>
    <rect x="232" y="0" width="20" height="20" class="cell-numbered"/>
    <rect x="252" y="0" width="160" height="20" class="cell"/>
    <rect x="412" y="0" width="20" height="20" class="cell-numbered"/>
    <path d="M 20,0 v20 M 40,0 v20 M 60,0 v20 M 80,0 v20 M 100,0 v20 M 120,0 v20 M 140,0 v20 M 160,0 v20 M 180,0 v20 M 252,0 v20 M 272,0 v20 M 292,0 v20 M 312,0 v20 M 332,0 v20 M 352,0 v20 M 372,0 v20 M 392,0 v20 M 412,0 v20" class="cell-dividers"/>
    <rect x="0" y="0" width="200" height="20" class="row-border"/>
    <rect x="232" y="0" width="200" height="20" class="row-border"/>
    <text x="10" y="13" class="number-text">1</text>
    <text x="190" y="13" class="number-text">10</text>
    <text x="242" y="13" class="number-text">11</text>
    <text x="422" y="13" class="number-text">20</text>
  </g>
  <!-- Row 3: 3 groups (7+7+6) -->
  <g transform="translate(50, 50)">
    <text x="-25" y="15" class="row-label">3</text>
    <text x="70" y="-4" class="group-label">1</text>
    <text x="226" y="-4" class="group-label">2</text>
    <text x="372" y="-4" class="group-label">3</text>
    <rect x="0" y="0" width="20" height="20" class="cell-numbered"/>
    <rect x="20" y="0" width="100" height="20" class="cell"/>
    <rect x="120" y="0" width="20" height="20" class="cell-numbered"/>
    <rect x="156" y="0" width="20" height="20" class="cell-numbered"/>
    <rect x="176" y="0" width="100" height="20" class="cell"/>
    <rect x="276" y="0" width="20" height="20" class="cell-numbered"/>
    <rect x="312" y="0" width="20" height="20" class="cell-numbered"/>
    <rect x="332" y="0" width="80" height="20" class="cell"/>
    <rect x="412" y="0" width="20" height="20" class="cell-numbered"/>
    <path d="M 20,0 v20 M 40,0 v20 M 60,0 v20 M 80,0 v20 M 100,0 v20 M 120,0 v20 M 176,0 v20 M 196,0 v20 M 216,0 v20 M 236,0 v20 M 256,0 v20 M 276,0 v20 M 332,0 v20 M 352,0 v20 M 372,0 v20 M 392,0 v20 M 412,0 v20" class="cell-dividers"/>
    <rect x="0" y="0" width="140" height="20" class="row-border"/>
    <rect x="156" y="0" width="140" height="20" class="row-border"/>
    <rect x="312" y="0" width="120" height="20" class="row-border"/>
    <text x="10" y="13" class="number-text">1</text>
    <text x="130" y="13" class="number-text">7</text>
    <text x="166" y="13" class="number-text">8</text>
    <text x="286" y="13" class="number-text">14</text>
    <text x="322" y="13" class="number-text">15</text>
    <text x="422" y="13" class="number-text">20</text>
  </g>
  <!-- Row 4: 4 groups -->
  <g transform="translate(50, 90)">
    <text x="-25" y="15" class="row-label">4</text>
    <text x="50" y="-4" class="group-label">1</text>
    <text x="160" y="-4" class="group-label">2</text>
    <text x="271" y="-4" class="group-label">3</text>
    <text x="382" y="-4" class="group-label">4</text>
    <rect x="0" y="0" width="20" height="20" class="cell-numbered"/>
    <rect x="20" y="0" width="60" height="20" class="cell"/>
    <rect x="80" y="0" width="20" height="20" class="cell-numbered"/>
    <rect x="110" y="0" width="20" height="20" class="cell-numbered"/>
    <rect x="130" y="0" width="60" height="20" class="cell"/>
    <rect x="190" y="0" width="20" height="20" class="cell-numbered"/>
    <rect x="221" y="0" width="20" height="20" class="cell-numbered"/>
    <rect x="241" y="0" width="60" height="20" class="cell"/>
    <rect x="301" y="0" width="20" height="20" class="cell-numbered"/>
    <rect x="332" y="0" width="20" height="20" class="cell-numbered"/>
    <rect x="352" y="0" width="60" height="20" class="cell"/>
    <rect x="412" y="0" width="20" height="20" class="cell-numbered"/>
    <path d="M 20,0 v20 M 40,0 v20 M 60,0 v20 M 80,0 v20 M 130,0 v20 M 150,0 v20 M 170,0 v20 M 190,0 v20 M 241,0 v20 M 261,0 v20 M 281,0 v20 M 301,0 v20 M 352,0 v20 M 372,0 v20 M 392,0 v20 M 412,0 v20" class="cell-dividers"/>
    <rect x="0" y="0" width="100" height="20" class="row-border"/>
    <rect x="110" y="0" width="100" height="20" class="row-border"/>
    <rect x="221" y="0" width="100" height="20" class="row-border"/>
    <rect x="332" y="0" width="100" height="20" class="row-border"/>
    <text x="10" y="13" class="number-text">1</text>
    <text x="90" y="13" class="number-text">5</text>
    <text x="120" y="13" class="number-text">6</text>
    <text x="200" y="13" class="number-text">10</text>
    <text x="231" y="13" class="number-text">11</text>
    <text x="311" y="13" class="number-text">15</text>
    <text x="342" y="13" class="number-text">16</text>
    <text x="422" y="13" class="number-text">20</text>
  </g>
  <!-- Row 5: 5 groups -->
  <g transform="translate(50, 130)">
    <text x="-25" y="15" class="row-label">5</text>
    <text x="40" y="-4" class="group-label">1</text>
    <text x="128" y="-4" class="group-label">2</text>
    <text x="216" y="-4" class="group-label">3</text>
    <text x="304" y="-4" class="group-label">4</text>
    <text x="392" y="-4" class="group-label">5</text>
    <rect x="0" y="0" width="20" height="20" class="cell-numbered"/>
    <rect x="20" y="0" width="40" height="20" class="cell"/>
    <rect x="60" y="0" width="20" height="20" class="cell-numbered"/>
    <rect x="88" y="0" width="20" height="20" class="cell-numbered"/>
    <rect x="108" y="0" width="40" height="20" class="cell"/>
    <rect x="148" y="0" width="20" height="20" class="cell-numbered"/>
    <rect x="176" y="0" width="20" height="20" class="cell-numbered"/>
    <rect x="196" y="0" width="40" height="20" class="cell"/>
    <rect x="236" y="0" width="20" height="20" class="cell-numbered"/>
    <rect x="264" y="0" width="20" height="20" class="cell-numbered"/>
    <rect x="284" y="0" width="40" height="20" class="cell"/>
    <rect x="324" y="0" width="20" height="20" class="cell-numbered"/>
    <rect x="352" y="0" width="20" height="20" class="cell-numbered"/>
    <rect x="372" y="0" width="40" height="20" class="cell"/>
    <rect x="412" y="0" width="20" height="20" class="cell-numbered"/>
    <path d="M 20,0 v20 M 40,0 v20 M 60,0 v20 M 108,0 v20 M 128,0 v20 M 148,0 v20 M 196,0 v20 M 216,0 v20 M 236,0 v20 M 284,0 v20 M 304,0 v20 M 324,0 v20 M 372,0 v20 M 392,0 v20 M 412,0 v20" class="cell-dividers"/>
    <rect x="0" y="0" width="80" height="20" class="row-border"/>
    <rect x="88" y="0" width="80" height="20" class="row-border"/>
    <rect x="176" y="0" width="80" height="20" class="row-border"/>
    <rect x="264" y="0" width="80" height="20" class="row-border"/>
    <rect x="352" y="0" width="80" height="20" class="row-border"/>
    <text x="10" y="13" class="number-text">1</text>
    <text x="70" y="13" class="number-text">4</text>
    <text x="98" y="13" class="number-text">5</text>
    <text x="158" y="13" class="number-text">8</text>
    <text x="186" y="13" class="number-text">9</text>
    <text x="246" y="13" class="number-text">12</text>
    <text x="274" y="13" class="number-text">13</text>
    <text x="334" y="13" class="number-text">16</text>
    <text x="362" y="13" class="number-text">17</text>
    <text x="422" y="13" class="number-text">20</text>
  </g>
  <!-- Row 6: 6 groups (4+4+3+3+3+3) -->
  <g transform="translate(50, 170)">
    <text x="-25" y="15" class="row-label">6</text>
    <text x="40" y="-4" class="group-label">1</text>
    <text x="126" y="-4" class="group-label">2</text>
    <text x="202" y="-4" class="group-label">3</text>
    <text x="269" y="-4" class="group-label">4</text>
    <text x="335" y="-4" class="group-label">5</text>
    <text x="402" y="-4" class="group-label">6</text>
    <rect x="0" y="0" width="20" height="20" class="cell-numbered"/>
    <rect x="20" y="0" width="40" height="20" class="cell"/>
    <rect x="60" y="0" width="20" height="20" class="cell-numbered"/>
    <rect x="86" y="0" width="20" height="20" class="cell-numbered"/>
    <rect x="106" y="0" width="40" height="20" class="cell"/>
    <rect x="146" y="0" width="20" height="20" class="cell-numbered"/>
    <rect x="172" y="0" width="20" height="20" class="cell-numbered"/>
    <rect x="192" y="0" width="20" height="20" class="cell"/>
    <rect x="212" y="0" width="20" height="20" class="cell-numbered"/>
    <rect x="239" y="0" width="20" height="20" class="cell-numbered"/>
    <rect x="259" y="0" width="20" height="20" class="cell"/>
    <rect x="279" y="0" width="20" height="20" class="cell-numbered"/>
    <rect x="305" y="0" width="20" height="20" class="cell-numbered"/>
    <rect x="325" y="0" width="20" height="20" class="cell"/>
    <rect x="345" y="0" width="20" height="20" class="cell-numbered"/>
    <rect x="372" y="0" width="20" height="20" class="cell-numbered"/>
    <rect x="392" y="0" width="20" height="20" class="cell"/>
    <rect x="412" y="0" width="20" height="20" class="cell-numbered"/>
    <path d="M 20,0 v20 M 40,0 v20 M 60,0 v20 M 106,0 v20 M 126,0 v20 M 146,0 v20 M 192,0 v20 M 212,0 v20 M 259,0 v20 M 279,0 v20 M 325,0 v20 M 345,0 v20 M 392,0 v20 M 412,0 v20" class="cell-dividers"/>
    <rect x="0" y="0" width="80" height="20" class="row-border"/>
    <rect x="86" y="0" width="80" height="20" class="row-border"/>
    <rect x="172" y="0" width="60" height="20" class="row-border"/>
    <rect x="239" y="0" width="60" height="20" class="row-border"/>
    <rect x="305" y="0" width="60" height="20" class="row-border"/>
    <rect x="372" y="0" width="60" height="20" class="row-border"/>
    <text x="10" y="13" class="number-text">1</text>
    <text x="70" y="13" class="number-text">4</text>
    <text x="96" y="13" class="number-text">5</text>
    <text x="156" y="13" class="number-text">8</text>
    <text x="182" y="13" class="number-text">9</text>
    <text x="222" y="13" class="number-text">11</text>
    <text x="249" y="13" class="number-text">12</text>
    <text x="289" y="13" class="number-text">14</text>
    <text x="315" y="13" class="number-text">15</text>
    <text x="355" y="13" class="number-text">17</text>
    <text x="382" y="13" class="number-text">18</text>
    <text x="422" y="13" class="number-text">20</text>
  </g>
  <!-- Row 7: 7 groups (3+3+3+3+3+3+2) -->
  <g transform="translate(50, 210)">
    <text x="-25" y="15" class="row-label">7</text>
    <text x="30" y="-4" class="group-label">1</text>
    <text x="95" y="-4" class="group-label">2</text>
    <text x="160" y="-4" class="group-label">3</text>
    <text x="226" y="-4" class="group-label">4</text>
    <text x="291" y="-4" class="group-label">5</text>
    <text x="356" y="-4" class="group-label">6</text>
    <text x="411" y="-4" class="group-label">7</text>
    <rect x="0" y="0" width="20" height="20" class="cell-numbered"/>
    <rect x="20" y="0" width="20" height="20" class="cell"/>
    <rect x="40" y="0" width="20" height="20" class="cell-numbered"/>
    <rect x="65" y="0" width="20" height="20" class="cell-numbered"/>
    <rect x="85" y="0" width="20" height="20" class="cell"/>
    <rect x="105" y="0" width="20" height="20" class="cell-numbered"/>
    <rect x="130" y="0" width="20" height="20" class="cell-numbered"/>
    <rect x="150" y="0" width="20" height="20" class="cell"/>
    <rect x="170" y="0" width="20" height="20" class="cell-numbered"/>
    <rect x="196" y="0" width="20" height="20" class="cell-numbered"/>
    <rect x="216" y="0" width="20" height="20" class="cell"/>
    <rect x="236" y="0" width="20" height="20" class="cell-numbered"/>
    <rect x="261" y="0" width="20" height="20" class="cell-numbered"/>
    <rect x="281" y="0" width="20" height="20" class="cell"/>
    <rect x="301" y="0" width="20" height="20" class="cell-numbered"/>
    <rect x="326" y="0" width="20" height="20" class="cell-numbered"/>
    <rect x="346" y="0" width="20" height="20" class="cell"/>
    <rect x="366" y="0" width="20" height="20" class="cell-numbered"/>
    <rect x="391" y="0" width="20" height="20" class="cell-numbered"/>
    <rect x="411" y="0" width="20" height="20" class="cell-numbered"/>
    <path d="M 20,0 v20 M 40,0 v20 M 85,0 v20 M 105,0 v20 M 150,0 v20 M 170,0 v20 M 216,0 v20 M 236,0 v20 M 281,0 v20 M 301,0 v20 M 346,0 v20 M 366,0 v20 M 411,0 v20" class="cell-dividers"/>
    <rect x="0" y="0" width="60" height="20" class="row-border"/>
    <rect x="65" y="0" width="60" height="20" class="row-border"/>
    <rect x="130" y="0" width="60" height="20" class="row-border"/>
    <rect x="196" y="0" width="60" height="20" class="row-border"/>
    <rect x="261" y="0" width="60" height="20" class="row-border"/>
    <rect x="326" y="0" width="60" height="20" class="row-border"/>
    <rect x="391" y="0" width="40" height="20" class="row-border"/>
    <text x="10" y="13" class="number-text">1</text>
    <text x="50" y="13" class="number-text">3</text>
    <text x="75" y="13" class="number-text">4</text>
    <text x="115" y="13" class="number-text">6</text>
    <text x="140" y="13" class="number-text">7</text>
    <text x="180" y="13" class="number-text">9</text>
    <text x="206" y="13" class="number-text">10</text>
    <text x="246" y="13" class="number-text">12</text>
    <text x="271" y="13" class="number-text">13</text>
    <text x="311" y="13" class="number-text">15</text>
    <text x="336" y="13" class="number-text">16</text>
    <text x="376" y="13" class="number-text">18</text>
    <text x="401" y="13" class="number-text">19</text>
    <text x="421" y="13" class="number-text">20</text>
  </g>
  <!-- Row 8: 8 groups (3+3+3+3+2+2+2+2) -->
  <g transform="translate(50, 250)">
    <text x="-25" y="15" class="row-label">8</text>
    <text x="30" y="-4" class="group-label">1</text>
    <text x="94" y="-4" class="group-label">2</text>
    <text x="159" y="-4" class="group-label">3</text>
    <text x="223" y="-4" class="group-label">4</text>
    <text x="278" y="-4" class="group-label">5</text>
    <text x="322" y="-4" class="group-label">6</text>
    <text x="367" y="-4" class="group-label">7</text>
    <text x="411" y="-4" class="group-label">8</text>
    <rect x="0" y="0" width="20" height="20" class="cell-numbered"/>
    <rect x="20" y="0" width="20" height="20" class="cell"/>
    <rect x="40" y="0" width="20" height="20" class="cell-numbered"/>
    <rect x="64" y="0" width="20" height="20" class="cell-numbered"/>
    <rect x="84" y="0" width="20" height="20" class="cell"/>
    <rect x="104" y="0" width="20" height="20" class="cell-numbered"/>
    <rect x="129" y="0" width="20" height="20" class="cell-numbered"/>
    <rect x="149" y="0" width="20" height="20" class="cell"/>
    <rect x="169" y="0" width="20" height="20" class="cell-numbered"/>
    <rect x="193" y="0" width="20" height="20" class="cell-numbered"/>
    <rect x="213" y="0" width="20" height="20" class="cell"/>
    <rect x="233" y="0" width="20" height="20" class="cell-numbered"/>
    <rect x="258" y="0" width="20" height="20" class="cell-numbered"/>
    <rect x="278" y="0" width="20" height="20" class="cell-numbered"/>
    <rect x="302" y="0" width="20" height="20" class="cell-numbered"/>
    <rect x="322" y="0" width="20" height="20" class="cell-numbered"/>
    <rect x="347" y="0" width="20" height="20" class="cell-numbered"/>
    <rect x="367" y="0" width="20" height="20" class="cell-numbered"/>
    <rect x="391" y="0" width="20" height="20" class="cell-numbered"/>
    <rect x="411" y="0" width="20" height="20" class="cell-numbered"/>
    <path d="M 20,0 v20 M 40,0 v20 M 84,0 v20 M 104,0 v20 M 149,0 v20 M 169,0 v20 M 213,0 v20 M 233,0 v20 M 278,0 v20 M 322,0 v20 M 367,0 v20 M 411,0 v20" class="cell-dividers"/>
    <rect x="0" y="0" width="60" height="20" class="row-border"/>
    <rect x="64" y="0" width="60" height="20" class="row-border"/>
    <rect x="129" y="0" width="60" height="20" class="row-border"/>
    <rect x="193" y="0" width="60" height="20" class="row-border"/>
    <rect x="258" y="0" width="40" height="20" class="row-border"/>
    <rect x="302" y="0" width="40" height="20" class="row-border"/>
    <rect x="347" y="0" width="40" height="20" class="row-border"/>
    <rect x="391" y="0" width="40" height="20" class="row-border"/>
    <text x="10" y="13" class="number-text">1</text>
    <text x="50" y="13" class="number-text">3</text>
    <text x="74" y="13" class="number-text">4</text>
    <text x="114" y="13" class="number-text">6</text>
    <text x="139" y="13" class="number-text">7</text>
    <text x="179" y="13" class="number-text">9</text>
    <text x="203" y="13" class="number-text">10</text>
    <text x="243" y="13" class="number-text">12</text>
    <text x="268" y="13" class="number-text">13</text>
    <text x="288" y="13" class="number-text">14</text>
    <text x="312" y="13" class="number-text">15</text>
    <text x="332" y="13" class="number-text">16</text>
    <text x="357" y="13" class="number-text">17</text>
    <text x="377" y="13" class="number-text">18</text>
    <text x="401" y="13" class="number-text">19</text>
    <text x="421" y="13" class="number-text">20</text>
  </g>
  <!-- Row 9: 9 groups (3+3+2+2+2+2+2+2+2) -->
  <g transform="translate(50, 290)">
    <text x="-25" y="15" class="row-label">9</text>
    <text x="30" y="-4" class="group-label">1</text>
    <text x="94" y="-4" class="group-label">2</text>
    <text x="148" y="-4" class="group-label">3</text>
    <text x="192" y="-4" class="group-label">4</text>
    <text x="236" y="-4" class="group-label">5</text>
    <text x="280" y="-4" class="group-label">6</text>
    <text x="324" y="-4" class="group-label">7</text>
    <text x="368" y="-4" class="group-label">8</text>
    <text x="412" y="-4" class="group-label">9</text>
    <rect x="0" y="0" width="20" height="20" class="cell-numbered"/>
    <rect x="20" y="0" width="20" height="20" class="cell"/>
    <rect x="40" y="0" width="20" height="20" class="cell-numbered"/>
    <rect x="64" y="0" width="20" height="20" class="cell-numbered"/>
    <rect x="84" y="0" width="20" height="20" class="cell"/>
    <rect x="104" y="0" width="20" height="20" class="cell-numbered"/>
    <rect x="128" y="0" width="20" height="20" class="cell-numbered"/>
    <rect x="148" y="0" width="20" height="20" class="cell-numbered"/>
    <rect x="172" y="0" width="20" height="20" class="cell-numbered"/>
    <rect x="192" y="0" width="20" height="20" class="cell-numbered"/>
    <rect x="216" y="0" width="20" height="20" class="cell-numbered"/>
    <rect x="236" y="0" width="20" height="20" class="cell-numbered"/>
    <rect x="260" y="0" width="20" height="20" class="cell-numbered"/>
    <rect x="280" y="0" width="20" height="20" class="cell-numbered"/>
    <rect x="304" y="0" width="20" height="20" class="cell-numbered"/>
    <rect x="324" y="0" width="20" height="20" class="cell-numbered"/>
    <rect x="348" y="0" width="20" height="20" class="cell-numbered"/>
    <rect x="368" y="0" width="20" height="20" class="cell-numbered"/>
    <rect x="392" y="0" width="20" height="20" class="cell-numbered"/>
    <rect x="412" y="0" width="20" height="20" class="cell-numbered"/>
    <path d="M 20,0 v20 M 40,0 v20 M 84,0 v20 M 104,0 v20 M 148,0 v20 M 192,0 v20 M 236,0 v20 M 280,0 v20 M 324,0 v20 M 368,0 v20 M 412,0 v20" class="cell-dividers"/>
    <rect x="0" y="0" width="60" height="20" class="row-border"/>
    <rect x="64" y="0" width="60" height="20" class="row-border"/>
    <rect x="128" y="0" width="40" height="20" class="row-border"/>
    <rect x="172" y="0" width="40" height="20" class="row-border"/>
    <rect x="216" y="0" width="40" height="20" class="row-border"/>
    <rect x="260" y="0" width="40" height="20" class="row-border"/>
    <rect x="304" y="0" width="40" height="20" class="row-border"/>
    <rect x="348" y="0" width="40" height="20" class="row-border"/>
    <rect x="392" y="0" width="40" height="20" class="row-border"/>
    <text x="10" y="13" class="number-text">1</text>
    <text x="50" y="13" class="number-text">3</text>
    <text x="74" y="13" class="number-text">4</text>
    <text x="114" y="13" class="number-text">6</text>
    <text x="138" y="13" class="number-text">7</text>
    <text x="158" y="13" class="number-text">8</text>
    <text x="182" y="13" class="number-text">9</text>
    <text x="202" y="13" class="number-text">10</text>
    <text x="226" y="13" class="number-text">11</text>
    <text x="246" y="13" class="number-text">12</text>
    <text x="270" y="13" class="number-text">13</text>
    <text x="290" y="13" class="number-text">14</text>
    <text x="314" y="13" class="number-text">15</text>
    <text x="334" y="13" class="number-text">16</text>
    <text x="358" y="13" class="number-text">17</text>
    <text x="378" y="13" class="number-text">18</text>
    <text x="402" y="13" class="number-text">19</text>
    <text x="422" y="13" class="number-text">20</text>
  </g>
</svg>
