<?xml version="1.0" encoding="UTF-8"?>
<svg xmlns="http://www.w3.org/2000/svg" viewBox="24 0 428 330" width="428" height="330">
  <!-- Define styles -->
  <style>
    .cell { fill: #2a2a2a; stroke: #fff; stroke-width: 0.5; }
    .cell-numbered { fill: #e5cfa3; stroke: #fff; stroke-width: 0.5; }
    .cell-dividers { stroke: #fff; stroke-width: 0.5; fill: none; }
    .group-divider { stroke: #ffffff; stroke-width: 1.5; }
    .row-border { fill: none; stroke: #ffffff; stroke-width: 1.5; }
    .number-text { font-family: Arial, sans-serif; font-size: 8px; font-weight: 600; text-anchor: middle; fill: #333; }
    .label-text { font-family: Arial, sans-serif; font-size: 10px; font-weight: bold; fill: #ffffff; }
    .group-label { font-family: Arial, sans-serif; font-size: 7px; text-anchor: middle; fill: #ffffff; }
    .row-label { font-family: Arial, sans-serif; font-size: 10px; font-weight: bold; fill: #ffffff; }
  </style>
  <!-- Row 2: 2 groups -->
  <g transform="translate(50, 10)">
    <text x="-25" y="14" class="row-label">2</text>
    <text x="100" y="-2" class="group-label">1</text>
    <text x="300" y="-2" class="group-label">2</text>
    <rect x="0" y="0" width="20" height="20" class="cell-numbered"/>
    <rect x="20" y="0" width="160" height="20" class="cell"/>
    <rect x="180" y="0" width="20" height="20" class="cell-numbered"/>
    <rect x="200" y="0" width="20" height="20" class="cell-numbered"/>
    <rect x="220" y="0" width="160" height="20" class="cell"/>
    <rect x="380" y="0" width="20" height="20" class="cell-numbered"/>
    <path d="M 20,0 v20 M 40,0 v20 M 60,0 v20 M 80,0 v20 M 100,0 v20 M 120,0 v20 M 140,0 v20 M 160,0 v20 M 180,0 v20 M 220,0 v20 M 240,0 v20 M 260,0 v20 M 280,0 v20 M 300,0 v20 M 320,0 v20 M 340,0 v20 M 360,0 v20 M 380,0 v20" class="cell-dividers"/>
    <line x1="200" y1="0" x2="200" y2="20" class="group-divider"/>
    <rect x="0" y="0" width="400" height="20" class="row-border"/>
    <text x="10" y="13" class="number-text">1</text>
    <text x="190" y="13" class="number-text">10</text>
    <text x="210" y="13" class="number-text">11</text>
    <text x="390" y="13" class="number-text">20</text>
  </g>
  <!-- Row 3: 3 groups (7+7+6) -->
  <g transform="translate(50, 50)">
    <text x="-25" y="14" class="row-label">3</text>
    <text x="70" y="-2" class="group-label">1</text>
    <text x="210" y="-2" class="group-label">2</text>
    <text x="330" y="-2" class="group-label">3</text>
    <rect x="0" y="0" width="20" height="20" class="cell-numbered"/>
    <rect x="20" y="0" width="100" height="20" class="cell"/>
    <rect x="120" y="0" width="20" height="20" class="cell-numbered"/>
    <rect x="140" y="0" width="20" height="20" class="cell-numbered"/>
    <rect x="160" y="0" width="100" height="20" class="cell"/>
    <rect x="260" y="0" width="20" height="20" class="cell-numbered"/>
    <rect x="280" y="0" width="20" height="20" class="cell-numbered"/>
    <rect x="300" y="0" width="80" height="20" class="cell"/>
    <rect x="380" y="0" width="20" height="20" class="cell-numbered"/>
    <path d="M 20,0 v20 M 40,0 v20 M 60,0 v20 M 80,0 v20 M 100,0 v20 M 120,0 v20 M 160,0 v20 M 180,0 v20 M 200,0 v20 M 220,0 v20 M 240,0 v20 M 260,0 v20 M 300,0 v20 M 320,0 v20 M 340,0 v20 M 360,0 v20 M 380,0 v20" class="cell-dividers"/>
    <line x1="140" y1="0" x2="140" y2="20" class="group-divider"/>
    <line x1="280" y1="0" x2="280" y2="20" class="group-divider"/>
    <rect x="0" y="0" width="400" height="20" class="row-border"/>
    <text x="10" y="13" class="number-text">1</text>
    <text x="130" y="13" class="number-text">7</text>
    <text x="150" y="13" class="number-text">8</text>
    <text x="270" y="13" class="number-text">14</text>
    <text x="290" y="13" class="number-text">15</text>
    <text x="390" y="13" class="number-text">20</text>
  </g>
  <!-- Row 4: 4 groups -->
  <g transform="translate(50, 90)">
    <text x="-25" y="14" class="row-label">4</text>
    <text x="50" y="-2" class="group-label">1</text>
    <text x="150" y="-2" class="group-label">2</text>
    <text x="250" y="-2" class="group-label">3</text>
    <text x="350" y="-2" class="group-label">4</text>
    <rect x="0" y="0" width="20" height="20" class="cell-numbered"/>
    <rect x="20" y="0" width="60" height="20" class="cell"/>
    <rect x="80" y="0" width="20" height="20" class="cell-numbered"/>
    <rect x="100" y="0" width="20" height="20" class="cell-numbered"/>
    <rect x="120" y="0" width="60" height="20" class="cell"/>
    <rect x="180" y="0" width="20" height="20" class="cell-numbered"/>
    <rect x="200" y="0" width="20" height="20" class="cell-numbered"/>
    <rect x="220" y="0" width="60" height="20" class="cell"/>
    <rect x="280" y="0" width="20" height="20" class="cell-numbered"/>
    <rect x="300" y="0" width="20" height="20" class="cell-numbered"/>
    <rect x="320" y="0" width="60" height="20" class="cell"/>
    <rect x="380" y="0" width="20" height="20" class="cell-numbered"/>
    <path d="M 20,0 v20 M 40,0 v20 M 60,0 v20 M 80,0 v20 M 120,0 v20 M 140,0 v20 M 160,0 v20 M 180,0 v20 M 220,0 v20 M 240,0 v20 M 260,0 v20 M 280,0 v20 M 320,0 v20 M 340,0 v20 M 360,0 v20 M 380,0 v20" class="cell-dividers"/>
    <line x1="100" y1="0" x2="100" y2="20" class="group-divider"/>
    <line x1="200" y1="0" x2="200" y2="20" class="group-divider"/>
    <line x1="300" y1="0" x2="300" y2="20" class="group-divider"/>
    <rect x="0" y="0" width="400" height="20" class="row-border"/>
    <text x="10" y="13" class="number-text">1</text>
    <text x="90" y="13" class="number-text">5</text>
    <text x="110" y="13" class="number-text">6</text>
    <text x="190" y="13" class="number-text">10</text>
    <text x="210" y="13" class="number-text">11</text>
    <text x="290" y="13" class="number-text">15</text>
    <text x="310" y="13" class="number-text">16</text>
    <text x="390" y="13" class="number-text">20</text>
  </g>
  <!-- Row 5: 5 groups -->
  <g transform="translate(50, 130)">
    <text x="-25" y="14" class="row-label">5</text>
    <text x="40" y="-2" class="group-label">1</text>
    <text x="120" y="-2" class="group-label">2</text>
    <text x="200" y="-2" class="group-label">3</text>
    <text x="280" y="-2" class="group-label">4</text>
    <text x="360" y="-2" class="group-label">5</text>
    <rect x="0" y="0" width="20" height="20" class="cell-numbered"/>
    <rect x="20" y="0" width="40" height="20" class="cell"/>
    <rect x="60" y="0" width="20" height="20" class="cell-numbered"/>
    <rect x="80" y="0" width="20" height="20" class="cell-numbered"/>
    <rect x="100" y="0" width="40" height="20" class="cell"/>
    <rect x="140" y="0" width="20" height="20" class="cell-numbered"/>
    <rect x="160" y="0" width="20" height="20" class="cell-numbered"/>
    <rect x="180" y="0" width="40" height="20" class="cell"/>
    <rect x="220" y="0" width="20" height="20" class="cell-numbered"/>
    <rect x="240" y="0" width="20" height="20" class="cell-numbered"/>
    <rect x="260" y="0" width="40" height="20" class="cell"/>
    <rect x="300" y="0" width="20" height="20" class="cell-numbered"/>
    <rect x="320" y="0" width="20" height="20" class="cell-numbered"/>
    <rect x="340" y="0" width="40" height="20" class="cell"/>
    <rect x="380" y="0" width="20" height="20" class="cell-numbered"/>
    <path d="M 20,0 v20 M 40,0 v20 M 60,0 v20 M 100,0 v20 M 120,0 v20 M 140,0 v20 M 180,0 v20 M 200,0 v20 M 220,0 v20 M 260,0 v20 M 280,0 v20 M 300,0 v20 M 340,0 v20 M 360,0 v20 M 380,0 v20" class="cell-dividers"/>
    <line x1="80" y1="0" x2="80" y2="20" class="group-divider"/>
    <line x1="160" y1="0" x2="160" y2="20" class="group-divider"/>
    <line x1="240" y1="0" x2="240" y2="20" class="group-divider"/>
    <line x1="320" y1="0" x2="320" y2="20" class="group-divider"/>
    <rect x="0" y="0" width="400" height="20" class="row-border"/>
    <text x="10" y="13" class="number-text">1</text>
    <text x="70" y="13" class="number-text">4</text>
    <text x="90" y="13" class="number-text">5</text>
    <text x="150" y="13" class="number-text">8</text>
    <text x="170" y="13" class="number-text">9</text>
    <text x="230" y="13" class="number-text">12</text>
    <text x="250" y="13" class="number-text">13</text>
    <text x="310" y="13" class="number-text">16</text>
    <text x="330" y="13" class="number-text">17</text>
    <text x="390" y="13" class="number-text">20</text>
  </g>
  <!-- Row 6: 6 groups (4+4+3+3+3+3) -->
  <g transform="translate(50, 170)">
    <text x="-25" y="14" class="row-label">6</text>
    <text x="40" y="-2" class="group-label">1</text>
    <text x="120" y="-2" class="group-label">2</text>
    <text x="190" y="-2" class="group-label">3</text>
    <text x="250" y="-2" class="group-label">4</text>
    <text x="310" y="-2" class="group-label">5</text>
    <text x="370" y="-2" class="group-label">6</text>
    <rect x="0" y="0" width="20" height="20" class="cell-numbered"/>
    <rect x="20" y="0" width="40" height="20" class="cell"/>
    <rect x="60" y="0" width="20" height="20" class="cell-numbered"/>
    <rect x="80" y="0" width="20" height="20" class="cell-numbered"/>
    <rect x="100" y="0" width="40" height="20" class="cell"/>
    <rect x="140" y="0" width="20" height="20" class="cell-numbered"/>
    <rect x="160" y="0" width="20" height="20" class="cell-numbered"/>
    <rect x="180" y="0" width="20" height="20" class="cell"/>
    <rect x="200" y="0" width="20" height="20" class="cell-numbered"/>
    <rect x="220" y="0" width="20" height="20" class="cell-numbered"/>
    <rect x="240" y="0" width="20" height="20" class="cell"/>
    <rect x="260" y="0" width="20" height="20" class="cell-numbered"/>
    <rect x="280" y="0" width="20" height="20" class="cell-numbered"/>
    <rect x="300" y="0" width="20" height="20" class="cell"/>
    <rect x="320" y="0" width="20" height="20" class="cell-numbered"/>
    <rect x="340" y="0" width="20" height="20" class="cell-numbered"/>
    <rect x="360" y="0" width="20" height="20" class="cell"/>
    <rect x="380" y="0" width="20" height="20" class="cell-numbered"/>
    <path d="M 20,0 v20 M 40,0 v20 M 60,0 v20 M 100,0 v20 M 120,0 v20 M 140,0 v20 M 180,0 v20 M 200,0 v20 M 240,0 v20 M 260,0 v20 M 300,0 v20 M 320,0 v20 M 360,0 v20 M 380,0 v20" class="cell-dividers"/>
    <line x1="80" y1="0" x2="80" y2="20" class="group-divider"/>
    <line x1="160" y1="0" x2="160" y2="20" class="group-divider"/>
    <line x1="220" y1="0" x2="220" y2="20" class="group-divider"/>
    <line x1="280" y1="0" x2="280" y2="20" class="group-divider"/>
    <line x1="340" y1="0" x2="340" y2="20" class="group-divider"/>
    <rect x="0" y="0" width="400" height="20" class="row-border"/>
    <text x="10" y="13" class="number-text">1</text>
    <text x="70" y="13" class="number-text">4</text>
    <text x="90" y="13" class="number-text">5</text>
    <text x="150" y="13" class="number-text">8</text>
    <text x="170" y="13" class="number-text">9</text>
    <text x="210" y="13" class="number-text">11</text>
    <text x="230" y="13" class="number-text">12</text>
    <text x="270" y="13" class="number-text">14</text>
    <text x="290" y="13" class="number-text">15</text>
    <text x="330" y="13" class="number-text">17</text>
    <text x="350" y="13" class="number-text">18</text>
    <text x="390" y="13" class="number-text">20</text>
  </g>
  <!-- Row 7: 7 groups (3+3+3+3+3+3+2) -->
  <g transform="translate(50, 210)">
    <text x="-25" y="14" class="row-label">7</text>
    <text x="30" y="-2" class="group-label">1</text>
    <text x="90" y="-2" class="group-label">2</text>
    <text x="150" y="-2" class="group-label">3</text>
    <text x="210" y="-2" class="group-label">4</text>
    <text x="270" y="-2" class="group-label">5</text>
    <text x="330" y="-2" class="group-label">6</text>
    <text x="380" y="-2" class="group-label">7</text>
    <rect x="0" y="0" width="20" height="20" class="cell-numbered"/>
    <rect x="20" y="0" width="20" height="20" class="cell"/>
    <rect x="40" y="0" width="20" height="20" class="cell-numbered"/>
    <rect x="60" y="0" width="20" height="20" class="cell-numbered"/>
    <rect x="80" y="0" width="20" height="20" class="cell"/>
    <rect x="100" y="0" width="20" height="20" class="cell-numbered"/>
    <rect x="120" y="0" width="20" height="20" class="cell-numbered"/>
    <rect x="140" y="0" width="20" height="20" class="cell"/>
    <rect x="160" y="0" width="20" height="20" class="cell-numbered"/>
    <rect x="180" y="0" width="20" height="20" class="cell-numbered"/>
    <rect x="200" y="0" width="20" height="20" class="cell"/>
    <rect x="220" y="0" width="20" height="20" class="cell-numbered"/>
    <rect x="240" y="0" width="20" height="20" class="cell-numbered"/>
    <rect x="260" y="0" width="20" height="20" class="cell"/>
    <rect x="280" y="0" width="20" height="20" class="cell-numbered"/>
    <rect x="300" y="0" width="20" height="20" class="cell-numbered"/>
    <rect x="320" y="0" width="20" height="20" class="cell"/>
    <rect x="340" y="0" width="20" height="20" class="cell-numbered"/>
    <rect x="360" y="0" width="20" height="20" class="cell-numbered"/>
    <rect x="380" y="0" width="20" height="20" class="cell-numbered"/>
    <path d="M 20,0 v20 M 40,0 v20 M 80,0 v20 M 100,0 v20 M 140,0 v20 M 160,0 v20 M 200,0 v20 M 220,0 v20 M 260,0 v20 M 280,0 v20 M 320,0 v20 M 340,0 v20 M 380,0 v20" class="cell-dividers"/>
    <line x1="60" y1="0" x2="60" y2="20" class="group-divider"/>
    <line x1="120" y1="0" x2="120" y2="20" class="group-divider"/>
    <line x1="180" y1="0" x2="180" y2="20" class="group-divider"/>
    <line x1="240" y1="0" x2="240" y2="20" class="group-divider"/>
    <line x1="300" y1="0" x2="300" y2="20" class="group-divider"/>
    <line x1="360" y1="0" x2="360" y2="20" class="group-divider"/>
    <rect x="0" y="0" width="400" height="20" class="row-border"/>
    <text x="10" y="13" class="number-text">1</text>
    <text x="50" y="13" class="number-text">3</text>
    <text x="70" y="13" class="number-text">4</text>
    <text x="110" y="13" class="number-text">6</text>
    <text x="130" y="13" class="number-text">7</text>
    <text x="170" y="13" class="number-text">9</text>
    <text x="190" y="13" class="number-text">10</text>
    <text x="230" y="13" class="number-text">12</text>
    <text x="250" y="13" class="number-text">13</text>
    <text x="290" y="13" class="number-text">15</text>
    <text x="310" y="13" class="number-text">16</text>
    <text x="350" y="13" class="number-text">18</text>
    <text x="370" y="13" class="number-text">19</text>
    <text x="390" y="13" class="number-text">20</text>
  </g>
  <!-- Row 8: 8 groups (3+3+3+3+2+2+2+2) -->
  <g transform="translate(50, 250)">
    <text x="-25" y="14" class="row-label">8</text>
    <text x="30" y="-2" class="group-label">1</text>
    <text x="90" y="-2" class="group-label">2</text>
    <text x="150" y="-2" class="group-label">3</text>
    <text x="210" y="-2" class="group-label">4</text>
    <text x="260" y="-2" class="group-label">5</text>
    <text x="300" y="-2" class="group-label">6</text>
    <text x="340" y="-2" class="group-label">7</text>
    <text x="380" y="-2" class="group-label">8</text>
    <rect x="0" y="0" width="20" height="20" class="cell-numbered"/>
    <rect x="20" y="0" width="20" height="20" class="cell"/>
    <rect x="40" y="0" width="20" height="20" class="cell-numbered"/>
    <rect x="60" y="0" width="20" height="20" class="cell-numbered"/>
    <rect x="80" y="0" width="20" height="20" class="cell"/>
    <rect x="100" y="0" width="20" height="20" class="cell-numbered"/>
    <rect x="120" y="0" width="20" height="20" class="cell-numbered"/>
    <rect x="140" y="0" width="20" height="20" class="cell"/>
    <rect x="160" y="0" width="20" height="20" class="cell-numbered"/>
    <rect x="180" y="0" width="20" height="20" class="cell-numbered"/>
    <rect x="200" y="0" width="20" height="20" class="cell"/>
    <rect x="220" y="0" width="20" height="20" class="cell-numbered"/>
    <rect x="240" y="0" width="20" height="20" class="cell-numbered"/>
    <rect x="260" y="0" width="20" height="20" class="cell-numbered"/>
    <rect x="280" y="0" width="20" height="20" class="cell-numbered"/>
    <rect x="300" y="0" width="20" height="20" class="cell-numbered"/>
    <rect x="320" y="0" width="20" height="20" class="cell-numbered"/>
    <rect x="340" y="0" width="20" height="20" class="cell-numbered"/>
    <rect x="360" y="0" width="20" height="20" class="cell-numbered"/>
    <rect x="380" y="0" width="20" height="20" class="cell-numbered"/>
    <path d="M 20,0 v20 M 40,0 v20 M 80,0 v20 M 100,0 v20 M 140,0 v20 M 160,0 v20 M 200,0 v20 M 220,0 v20 M 260,0 v20 M 300,0 v20 M 340,0 v20 M 380,0 v20" class="cell-dividers"/>
    <line x1="60" y1="0" x2="60" y2="20" class="group-divider"/>
    <line x1="120" y1="0" x2="120" y2="20" class="group-divider"/>
    <line x1="180" y1="0" x2="180" y2="20" class="group-divider"/>
    <line x1="240" y1="0" x2="240" y2="20" class="group-divider"/>
    <line x1="280" y1="0" x2="280" y2="20" class="group-divider"/>
    <line x1="320" y1="0" x2="320" y2="20" class="group-divider"/>
    <line x1="360" y1="0" x2="360" y2="20" class="group-divider"/>
    <rect x="0" y="0" width="400" height="20" class="row-border"/>
    <text x="10" y="13" class="number-text">1</text>
    <text x="50" y="13" class="number-text">3</text>
    <text x="70" y="13" class="number-text">4</text>
    <text x="110" y="13" class="number-text">6</text>
    <text x="130" y="13" class="number-text">7</text>
    <text x="170" y="13" class="number-text">9</text>
    <text x="190" y="13" class="number-text">10</text>
    <text x="230" y="13" class="number-text">12</text>
    <text x="250" y="13" class="number-text">13</text>
    <text x="270" y="13" class="number-text">14</text>
    <text x="290" y="13" class="number-text">15</text>
    <text x="310" y="13" class="number-text">16</text>
    <text x="330" y="13" class="number-text">17</text>
    <text x="350" y="13" class="number-text">18</text>
    <text x="370" y="13" class="number-text">19</text>
    <text x="390" y="13" class="number-text">20</text>
  </g>
  <!-- Row 9: 9 groups (3+3+2+2+2+2+2+2+2) -->
  <g transform="translate(50, 290)">
    <text x="-25" y="14" class="row-label">9</text>
    <text x="30" y="-2" class="group-label">1</text>
    <text x="90" y="-2" class="group-label">2</text>
    <text x="140" y="-2" class="group-label">3</text>
    <text x="180" y="-2" class="group-label">4</text>
    <text x="220" y="-2" class="group-label">5</text>
    <text x="260" y="-2" class="group-label">6</text>
    <text x="300" y="-2" class="group-label">7</text>
    <text x="340" y="-2" class="group-label">8</text>
    <text x="380" y="-2" class="group-label">9</text>
    <rect x="0" y="0" width="20" height="20" class="cell-numbered"/>
    <rect x="20" y="0" width="20" height="20" class="cell"/>
    <rect x="40" y="0" width="20" height="20" class="cell-numbered"/>
    <rect x="60" y="0" width="20" height="20" class="cell-numbered"/>
    <rect x="80" y="0" width="20" height="20" class="cell"/>
    <rect x="100" y="0" width="20" height="20" class="cell-numbered"/>
    <rect x="120" y="0" width="20" height="20" class="cell-numbered"/>
    <rect x="140" y="0" width="20" height="20" class="cell-numbered"/>
    <rect x="160" y="0" width="20" height="20" class="cell-numbered"/>
    <rect x="180" y="0" width="20" height="20" class="cell-numbered"/>
    <rect x="200" y="0" width="20" height="20" class="cell-numbered"/>
    <rect x="220" y="0" width="20" height="20" class="cell-numbered"/>
    <rect x="240" y="0" width="20" height="20" class="cell-numbered"/>
    <rect x="260" y="0" width="20" height="20" class="cell-numbered"/>
    <rect x="280" y="0" width="20" height="20" class="cell-numbered"/>
    <rect x="300" y="0" width="20" height="20" class="cell-numbered"/>
    <rect x="320" y="0" width="20" height="20" class="cell-numbered"/>
    <rect x="340" y="0" width="20" height="20" class="cell-numbered"/>
    <rect x="360" y="0" width="20" height="20" class="cell-numbered"/>
    <rect x="380" y="0" width="20" height="20" class="cell-numbered"/>
    <path d="M 20,0 v20 M 40,0 v20 M 80,0 v20 M 100,0 v20 M 140,0 v20 M 180,0 v20 M 220,0 v20 M 260,0 v20 M 300,0 v20 M 340,0 v20 M 380,0 v20" class="cell-dividers"/>
    <line x1="60" y1="0" x2="60" y2="20" class="group-divider"/>
    <line x1="120" y1="0" x2="120" y2="20" class="group-divider"/>
    <line x1="160" y1="0" x2="160" y2="20" class="group-divider"/>
    <line x1="200" y1="0" x2="200" y2="20" class="group-divider"/>
    <line x1="240" y1="0" x2="240" y2="20" class="group-divider"/>
    <line x1="280" y1="0" x2="280" y2="20" class="group-divider"/>
    <line x1="320" y1="0" x2="320" y2="20" class="group-divider"/>
    <line x1="360" y1="0" x2="360" y2="20" class="group-divider"/>
    <rect x="0" y="0" width="400" height="20" class="row-border"/>
    <text x="10" y="13" class="number-text">1</text>
    <text x="50" y="13" class="number-text">3</text>
    <text x="70" y="13" class="number-text">4</text>
    <text x="110" y="13" class="number-text">6</text>
    <text x="130" y="13" class="number-text">7</text>
    <text x="150" y="13" class="number-text">8</text>
    <text x="170" y="13" class="number-text">9</text>
    <text x="190" y="13" class="number-text">10</text>
    <text x="210" y="13" class="number-text">11</text>
    <text x="230" y="13" class="number-text">12</text>
    <text x="250" y="13" class="number-text">13</text>
    <text x="270" y="13" class="number-text">14</text>
    <text x="290" y="13" class="number-text">15</text>
    <text x="310" y="13" class="number-text">16</text>
    <text x="330" y="13" class="number-text">17</text>
    <text x="350" y="13" class="number-text">18</text>
    <text x="370" y="13" class="number-text">19</text>
    <text x="390" y="13" class="number-text">20</text>
  </g>
</svg>
